<mxfile host="65bd71144e">
    <diagram id="EvkW-yCoovT4Y5RNS7yn" name="Page-1">
        <mxGraphModel dx="2987" dy="2723" grid="1" gridSize="10" guides="1" tooltips="1" connect="1" arrows="1" fold="1" page="1" pageScale="1" pageWidth="850" pageHeight="1100" math="0" shadow="0">
            <root>
                <mxCell id="0"/>
                <mxCell id="1" parent="0"/>
                <mxCell id="2" value="" style="shape=image;verticalLabelPosition=bottom;labelBackgroundColor=default;verticalAlign=top;aspect=fixed;imageAspect=0;image=data:image/webp,UklGRmKLAABXRUJQVlA4WAoAAAAgAAAAvgUA+wQASUNDUMgBAAAAAAHIAAAAAAQwAABtbnRyUkdCIFhZWiAH4AABAAEAAAAAAABhY3NwAAAAAAAAAAAAAAAAAAAAAAAAAAAAAAAAAAAAAQAA9tYAAQAAAADTLQAAAAAAAAAAAAAAAAAAAAAAAAAAAAAAAAAAAAAAAAAAAAAAAAAAAAAAAAAAAAAAAAAAAAlkZXNjAAAA8AAAACRyWFlaAAABFAAAABRnWFlaAAABKAAAABRiWFlaAAABPAAAABR3dHB0AAABUAAAABRyVFJDAAABZAAAAChnVFJDAAABZAAAAChiVFJDAAABZAAAAChjcHJ0AAABjAAAADxtbHVjAAAAAAAAAAEAAAAMZW5VUwAAAAgAAAAcAHMAUgBHAEJYWVogAAAAAAAAb6IAADj1AAADkFhZWiAAAAAAAABimQAAt4UAABjaWFlaIAAAAAAAACSgAAAPhAAAts9YWVogAAAAAAAA9tYAAQAAAADTLXBhcmEAAAAAAAQAAAACZmYAAPKnAAANWQAAE9AAAApbAAAAAAAAAABtbHVjAAAAAAAAAAEAAAAMZW5VUwAAACAAAAAcAEcAbwBvAGcAbABlACAASQBuAGMALgAgADIAMAAxADZWUDggdIkAAPBzA50BKr8F/AQ+bTaXSaQioqagk+jw0A2JaW6W6uf/fvxXGByK/nGgH//780CPm3+z/X33Afk3/h+KvH47lvGueX/W/oT/Se9z/l9DX/80+q+f427Ddf2HPbeQfBI/l9P/gvORWin+C+Zr6xPJz/6epf/qambuP81/2P+m/Gb31fU/4f/Rf4X9s/Pf8a+dfw39d/x//E/xv0Q/a3+l4lPkf5//yeh39B+8f6j/E/td8cf7z/qfmL/hvR/9l/dv+V/hv3G+AX19/k/7p+6X+J+PL9H9oO9J1j/h/+n/Z+wL7B/R/9J/kP3K/ynxs/Uf938qvcj7E/9z7lvsB/nH9W/yv+K/cz+8////9/hn+3/8f+n80j6d/uv2q+AT+Rf2f/ef4b/M/+3/D/UX/T/83/N/5/9qPe19Cf8j/Gf6f9nvsM/lf9Q/2H96/y3/x/xP////P3P/+T24fuB/1/cr/Vf/r/tb//wt2Hq/FHKwVU/uorw+TlYpEXFx7Xt6UBffAjSete43ahDFYfblxBUC1FGn61MfkWnU5W+d4zmaGD745aosTwhisPty4gqBaijT9amPyLTqcrfO8ZzNDB98ctUWJ4QxWH25cQVAtRRp+tTH5Fp1OVvneM5mhg++OWqLE8IYrD7cuIKgWoo0/Wpj8i06nK3zvGczQwffHLVFieEMVh9uXEFQLUUafrUx+RadTlb53jOZoYPvjlqixLS1Bhzx4Vsyz36pQM3I7q8sjvDlvHQyliI4CoGDSXlkkjnChPaH/QfFq8/6a0hAh+4+LV5/y5i1X9x+6djTw6FpuZWWQgI3IbcrMrLmireqhG/kWTUp+HtNLMI2ejtNLMAIvKJkrJpLyyaY2ZWWQgI3IFtMlZlHjIfFrAxS4f8yA+md36pQM451Dm+Lq2ZZ79UoGcMxUoGcc6hze66rumnMcP5xPhCoW1C2noaNjGecHURS/gHAMkd4K0Qk4EnAk4EnAk4Ek81ygGb7BkBXZRFL+AcArE8wGI2xf+/UYcjDkYcjTzba4lcbscl12WzLPfqlAzjnUOb4urZlnv1QiWS/AHxdWzLPfqkn297d5SyRcf6zMVsB/rMxWwH+szFbAf6xIzuWd5Rhxe8dwx2p31SgZxzqHN8XVsyz36fVfDtTvqlAzcsk7JxRxY9ZmK2A/1mYrYD/WZitgP9ZlwOUUQtjVto6tmWe/VKBnHOoc3xdWzKXzfF1bMs9+pthvnKUzZIuP9ZmK2A/1mYrYD/WZitgP68TVMb72eHanfVKBnHOoc3xdWzLPeveudt23eTvqlAzjnSUqjXr4WA/1mYrYD/WI3JtHcO4rfmDENykQust0Nki4/1mXJw171FbSiJLfqlAzjnUOb4urZlnvashHanfVKBnHNKkqWujFbAf6zMVsB79uE1Y0OjqsEkH/wKAgNIzT/+YIyxPxy3yg5JU3ZIuP9ZmK2AmzB8VjOhlUVESW/VKBnHOoc3xdWzLPe+UTwdqd9UoGcc6SlhramK2A/1mYrYD3ImTM2HHDCDv5rM6Toe/k1v606YF92jhKgYPvp8Hb7v2jngkgRMVsB/rMxFcHR3CfVKBnHOoc3xdWzLPfqlAzjkS+qUDOOdQ5teXPui+omK2A/1mYrYD/XZ1o4seszFbAe9ROsZK+Ikt+qUDOOdQ5vi6tmWe/VGy2ZZ79UoGcao+AYRcf6zMVsB/rMxWwH+szFbAf6zLgZI2sLavDtTvqlAzjnUOb4urZlnv0Gk1vQZxzqHN8XVgbeoAcWPWZitgP9ZmK2A/1mYrYD/WZcDJDW0yoZ/YUUL4dqd9UoGcc6hzfF1bMpfN8XVsyz36m1R3vsB/rMxWwH+szFbAf6zMVsB/rMuBkozpKzq2ZZ79UoGcc6hzfF1bMs8j8lm5KBnHOoc3xWM0/Bptx44seszFbAf6zMVsB/rMxWwH+sSsqa4yyKB79UoGcc6hzfF1bMs9+qUDOJz36pQM451DjreOTqG/W7K3dKoXOC9a47O4f6aR51eVqdetcdncP9NI86vK1OvWuOzuH+mkedXlanXrp/0Vrjrjs7h/ppHnV5Wp161x2dw/00jzq8rU6719M8/fiKb0tWyelESW/VKBnHOoc3xdWzLPfqjZbMs9+qUDOOaNW5orhrwVWlDra0rjUUiaC8AatyTQJJ3NTPGrnKehFoW1Cx/XB4Am/2ARjox7Kdd8KHRdjpLEy0jDkYODpPtGWJFkHw482M25hHUrICTyjhFHvz32IEkzEM1hbeJb9UoGcc6hzfF1bMs9+qUDN8twxZRSTHanfVKBnHOg03xdWzLPfqkOuTnSNfHl5O1CFZoX1JpSourXnnv1SgZqpqHN8XVsyz36pQM451Dm+Lq2ZZ72rIR2p31SgZxzqHN8XVsyzyoJ9BnHOoc2tBuD4FkDMfuyWp3YMFG76pQM451Dm+Lq2ZZ5UDFMgc3xdWzLPfqlAUKrmF1bMs9+qUDOOdQuDU24lv1SgZxzqHN7qx67yiiupMInP2LY2IGcc6hzfF1bMs9+qUDOOdQ5vi6tmWe/VKBnHOn0EoGcc6hzfF1bMg+xDeW/VKBnHOoc3xWLZ/ijFUlq1YS6BP2GLlVBY4WliO/4urZlnv1SgZxzqHN8XVsx5aB+GI6rKIwVdQcHlaGqrf/1SgZxzqHN8XVsyyFwYbKIGcc6hzfF0QsO/3iARhAzHVO+qUDOOdQ5vi6tmWe/U+gk7Soc3xdWzLPMDo2O4U27oOc7U76pQM451Dm+Lq2ZZ79UoGcc6hx2hiLZyxznv1SgZxzqHN8XVsyz36pQM451Dm+Lq2ZZ79UoGcTnv1SgZxzqHN8XVsyz36pQM451Dm91d5IvwQqH3gn/qofarBDvMyz36pQM451Dm+Lq2ZZ79UoGcc6hzfF1bMs8j8lm5KBnHOoc3xdWzLPfqg0IoCGExcDjOkSqVKBnHNKTHtMNmoAQ2ZZ79UoGcc6hzfF1bMs9+qUDOOdQ5vi6tmWe/VJ5OZZ79UoGcc6hzfF1bMs9+qUDOOdQ3R6bdyqIGcc6hzfF1bMs9+qUDOOdQ5vi6tmWe/VKBnHOobNKIkt+qUDOOdQ5vi6tmWe/VKBnHOltA8AcxF5vi6tmWe/VKBnHOoc3xdWzLPfqlAzjnUOb4urZj9USvD52n6pQM451Dm+Lq2ZZ79UoGcc6hzfFYpUFc+Oc7U76pQM451Dm+Lq2ZZ79UoGcc6hzfF1bMs9+qUA3fMLq2ZZ79UoGcc6hzfF1bMs9+qUDONUhJY8mp31SgZxzqHN8XVsyz36pQM451Dm+Lq2ZZ79UoChVcwurZlnv1SgZxzqHN8XVsyz36pQM45pOU5nNJi6qIkt+qUDOOdQ5vi6tmWe/VKBnHOoc3xdWzLPfqjZbMs9+qUDOOdQ5vi6tmWe/VKBnHOoS1Lv2WzLPfqlAzjnUOTrzHLbSiJLfqlAzjnUOb4urZlnv0+q+HanfVKBnHOoc3xdWzLPfqlAzjnSUAMvnzfF1bMs9+qUDON28nUVESW/VKBnHOoc3xdWzLPfqkwrYH1hfDtTvqlAzjnUOb4urZlnv1SgZxql3oTmxqplRgreBM1wc2vwmRLsXw7U76pQM451Dm+Lq2ZZ79UoGcc6hzfF1bMpfHaGzgwGLq7nqj7btAVgwybdkQU1dAYEMvYwYZNs99ltxYk20wk20wk20kJoYPVAupmYQcLV2kGtKGwYPS0dEVVQBsi0jtYqpWYAoQn6QhrJCX15nkKBQr8TxrrR7JmMXVH0tMwNAcr7xpeSQ7d8Knp6rXsDZv5d/de+W1EfNj1C3MLAnsX9SMYj/vbBjOUYigoB3kPKTQwhhtzSC1eRWKBkuaoR2Wplusjh8GhR4N40rLBHZLoFBOxevxmFoc6GLYAoH48XwXAgLIGCxyxAhFvUU6Zgv7/K7ixJtphJtmERablA5pi8YgDhpAlCl+E0LXRablFvJV2c69KaD6beG2GxU85Ma8PoP483OQImK2A/1nrm3YzxDVc9bxkYcjDkYcjDkYcjDkakZbNnKv/EEi4/1nrVsB/rMxWo+KR1EoZbLVhA9xNX5a5Q8seW6GyRcf6zMVsB/rMxWwH+szFbAf6zMVsB/rMxWwH+szFbAf6zwfQWJv3KpXE9K/1WrmuIFzFbAf6zMVsB/rMxWwH+szFbAf6zMVsB/rMxWwH+szFbAf6zMVsB7vR+LFW7q7ZZCnCyTJFx/rMxWwH+szFalA3IrpRZEn1QPWuvlWJG4dIUYa4zZIuP9ZmK2A/1mYrYD/WZitgP9ZmK18TTFMlIN0THy2sronY1ZWIRY9ZmK2A/1mYrYD+vkgNOWsPKCCEJYq48ALj/WZitgP9ZmK2A/1mYrYD/WZitgP6+nflpRC4AgrL4dwWCAAXH+szFbAf6zMVX4+TOLD8uQBEWIItQm+WAPVr9UFrzgS17RqApOGALj/WZitgP9ZmK2A/1mYrYD/WZitgPeonOvG4bN85NItPmtB+szFbAf6zMVsB/pogPEPYTVNbj/VPYxSwywX8fTXvTseG/c17Y8PqWPIgwmIvDPSXuxyAozZIuP9ZmK2A/1mYrYD/WZitgP9ZmK1IhGFc8WFEHeq0aCOLHrMxWwH+szFbAUUnae6KyPx0lzR0XV9uAhZsOT2JFH5wLj/WZitgP9ZmK2A/1mYrYD/WZitgKAg27vD/WM1Wso24x/rMxWwH+szFbAe+obA6qRIWHN4Ql5Os4kh7gjx2BCVNMSQonfPhx48jUVbAf6zMVsB/rMxWwH+szFbAf6zMVr4wIaQz/4DS+tWsArYD/WZitgP9ZmK2An2iuKAj78k0F2DArpff/smU70wBcf6zMRDw3XyP6EjGlz5vmmjtX0e95JiKFo06M1olAAuP9ZmK2A/1mYrXzFE8JYk340KLXmuMI9ZmK2A/1mYrYCeL0jmCWloMOIIcQRJYCGNaMch+YaS9JRcFKzBJ8BsTX6E/A3dNRastCFN4itgP9ZmIxtzMtqCQD4vMPTvoq/BVHpM3QHWM6rrjxMVsB/rMxWwH+szFaiziTRkMACeUlfn2kyRcf6zMVsB/rMuDmda78t0NiX/DNTX81ns+VCUP4cXnNAC4/1mEJipjbIZ5RA9je/Fw6+D/WZitgP9ZmK2A/1mXAyNsO/Nxa17JFx/rMxWwHugYH/+mkeeZ/SflK1OyETkTW5WvesoQsEx1cwzewXpkAgydmDgimPxDHh+kO4XeP/v9ZmK2DH0tIuP9ZmK2A/1mYrYD3qKSRX1mKJh2KKHgqbFbAf6zMVsB75clldnqSDVnFk9GaKVT6LhS10SHrws+ctizG1tRc0iyoo/dBHUYwNvpxaPEqOUyCx07tDy8JvE+CJitgP9ZmK2A/1mYrYD/WZiqvw/Ne/pNTRUo8rgBqFx/rMxWwH+sSuOPWZ6DSFYB2EymNxfCAw2xSPLZUeppkxj9bzJDCY/y3Q2SLj/WZitgP9ZmK2A/1mD5FPJZ4GXjCe1Gf9ZmK2A/1mYrUiGvvYHwDJFMQChCAUzJKpMTojnLCjAGqiQQ2DoGK2grh2DZn+XP1haqzYD/WZitgP9ZmK2A/1mYrYD3qJz3jRSO5HZPMdcBgbJFx/rMxWwFASAFH5wiALkaMmVx9YMwjMV9kLEId4cNcdiu/GqHHyj9y6wvH6cWJ0HarNa+B7N8isMweMajcARcbVluKF8aTkFp9/gOKedCrjVgMrCysPCThKTis9WL5Rx/ImK2A/1mYrYD/WZitgP9ZlwMlGuQEXcxlU1ldki4/1mYrXxgd+ggN/vpW+SYwF7XiiBEFD/SvvkMc9T4s/gL0EU9ueD+CqreekGQeb3yFWmBX3bpZFMXBP0UQQclRPH6xoQmzkrr1tfHAlSHAjIDMmCnBDeG81cHjix6zMVsB/rMxWwH+sSt9N10+L+JKbBTwa5bobJFx/rMuBmWiYqsPd7vqD10i66AUPxJvzQ2J8WBsDGpk4JpX4kvqki4/1mYrYD/WZitgP9Zg+Q+a8X/mf3Ze1ZXZIuP9ZmK2AoCQGQIhBI930aouM2Js5lAN0NiZoAcz+5CsTXUOIUVv9ZmK2A/1mYrYD/WZitfGH0GXvk340KLXoRmwp1xY9ZmK2A/1mD4M0R7jnHqqdBta/LdLdrWNKhWnkJVoVHmOCm5XUKyvWuOzuH+mqqrrQXakgPdoLg8cUpskmhuE2LBiCKVQDxmyRcf6zMVsB/rMxWviafPihybYWgbIAYRA0QGPWZitgP9ZmK2ULAlZrR3xwTg0Pt+xO5MwYNsY6UYszFWrJhfiMnWjix6zBzer4OXjYVYPZ4Ka2CxExWwH+szFbAf6zMVr4I1gaNiKEbB4sX+eukRiGlDDIdwRMVsB/rMxWwE7UphDKFFjY7RY0fNmcs35IAmZi3mhskXH+s8HKYnIpup65D1eWdNKQxY9ZmK2A/1mYrYD+0YnH/ffwJwyDpnMiplkmVF/CcERcC5ZouzbACQIU3BAf6pSKZpiq0GNjhOe6JNeR1qvFzI24ymhCqg3jOb3zwTC7NVnZrngneXAflynXNAMKCeYG6DeQwKysXlUDQ/pSVnEePALool3VyLVlahnmorxWZy2crDK1pWoaAJCPmPlOR24y1FlVBvHf1kG8Z2EoGmsIAD6KoT6F/AYGg6V3z9fJzGKDcla6/E1yytQz9OPCGGDffuEMDba54JhULpMjPnuxlDf4Qvr454JiOOMsxmzcrm2uxePOEgnMka7XDrPQO3+fPl/QMay5A6weBi2jmUmY9EX4dLXRP6KRy4RYIbWHNO88ExvI/mmMrDwSETttWG8hwWGYducp/cU+XDmAKX5DrINpxp2F+OOeiGbzfF1a85aRvyid+LIfpFk+xjnUMiDc3aGLT/I1and6Xy1veSW/VKBnHOocosBwsuROCXDhG0wrkTvIbxtNHxqt/AJilIHLLPzfJJb4UuFHeqUDIZZ/QJFLWomdvVHon11DRBfSMAKHVy/wQsoGcc6hzfF1bMs9+qUDOOIODycyzTvxcKbOBOhYjrOniJC7apwRJZUE+gx+bEzJbaQcI4l3gc1Wa0zWWd3t7JluqNlswB83w/77m8Vx1UWWPj9F2Fe8Sw0msK/t/+GBiChnjm8wzjkS+qNlj0SPKl95hnE579PqvhsPKBRZqaxeMfqlAzjkS61g2kBdjo+KxVgX4l9f3uaLB/jqne2jq1YUOZukHmpeNvdMKtbTKAg502uPfbR1asKHM3SJJO/Fwpt3QAluin3ToXw7U76pMMGA8cnfVKBnHOoc3xdK5odP8lL9v3d2lB1pEAEsd/a2r8lVMZQM331ZxPfXjh3XR/B/Yf9UoGMJs/P8JXjejSnTHG9wWnrg9DHZsj9g+JLPfqlAzjbw+Oe5wgZxxBwgZxzqHN8XMEQiIjZZ79UoGcc6hrtnEZWSa0GBrPRYFxeG69/2to1EJliLj9+Z34ok4iS36pQM450/34jlGBGZyZHUejC4BzGJH9LfqlAUSwfRElv1SgNVZwExVcKt31SgZxzqHN8XVsyz36pQM451Dm1xDx5PpfJ3xV9SG97S48sf/TPouLOdQ5vi6tmWe/VAhZTY7XRKzrWz80PVTv9jjjUOm39gde94We/VKBnHOoc3xdWrChzfF1bMs9+p45sF5b9UoGcc6hzfF1YIXOgcM45DGLpzwJwmIEDPILlOckt+qUDOOdQ5vi48NlPivgUACrPmpSNim2JCXw7U76pQM451DmbpElv1SgZxzqFvD1itmWe/VKBnHOoc2uI9xCelEQnlDGCLOLsxbiA6omY6AKhB/6pQM3K2QvQkrkH9iaQISscxUwxlT+QMay/emA0OV9Ih1NY8tybOfDJRZ2jpWrrnXWUiiGd9hnA4ENYQNZw6XmHwYacAfvh2p3XvZl5iQQoGcc6hzfF1bMs9+qUDOOdQ47QxF1q38D8leQLqXnIYcziZCZ1Boqep4MwIQXw1ldZRaSSdGepWatemLUMkr4/Z1xXQOTxpnuNRhdWzGM1E5SSLj/WZitgP9NqaMelkp31SgZZP1SgZxzqHN8WRSBeW/VKBnHOocdvTSrOCk+eMQA1Eq3fiqJ6M0U2mfTr9MRB0PRx1OZYOR2JEypAqTNKS2EVBMHz+O/NpsY1j1mYrYD/WZiKTQqRnU+hQggTf5Ql+iV8O1O+qUDOOdQ5vi6tmWe/VJPM9dEHqNkiBJQveSQPfqk/yr30CCSmhD/6a14LWGaXgUYe9NlYAuP9ZmK2A/01MfClC+FBT6fOYttKIkt+qUDONqQYkV+Lq2ZZ79Uk8MDGAf6zLg1fQvzP6fVKBm7KBaK3+RAEYBfTdKhI1RL5TnJtNKOFK0cWPWZitgP6+B50wW8PWK2WwOb4urZlnv1SY7J+tQ5vi6tmWe8mfg8cWOvh42zZlnv0+BwTyBFxzlIVspwY6435dcTlEtXY58V4zYmGuuIp4NfA/oK+Pjq8QTZIuKDwrT74urY855KEy4z/F1bMs9+qUDOOdQ5vi6tmWd14gj0aMQWefa/NXoGPi0fWxc9dhmVu9B4Qi6XVnYf1SgYc3TzDt+kUFHuzHC8WkaYN0NIwMJ33cCSOPc/J1tLGbB9J9/6ugDeAq0DHWvskXFB4PO/6gKF8O0/VtKIkt+qUDONyEef8XVsyz36pP8m+l8OKdPwFCdA5ntfzTqnfVKBXNMLgPpRwpWjgbNsuBlKG3xqgLcgpC2u4o78+hdWFA55EMy1r6bj51woXEjW5sZpskXFB4zLRnHOoct3x90lyqUDOOdQ5vi6tmWe/VKBnHOoS46m3yRcf6aaObkc3S8hhx7kiS36mw92Q60fQmK2BAfA4PHFMaabeq2ZZ79Pqvh2p31SgZxzZhA5/xdWzLPfqk/yb6Xw4seswkQXMmzKXzfF1bH/aJlpYWNN7WiQmK2A/1mYrYCh9rgahzfF1asKHN8XVsyz36n0J+fOoc3xdWzLO8S2IaM2SLigJGlAeH/jnUOb4rCbU088cWPWZitgPe19JLfqlAx3h26h87T9UoGcc6hzfF1bMs9+qUDOOaTMPH3HAzQXzXXs6hXkDSAvpPqgyDXXs6hZrTE1GSa4khD9G3uT/70wkHnVsyz35u8E27g8cWPWZitgP68upkr4XVsyz1VSgZxzqHN8XVlfsStQ5vi6tmWe/GZ9M6nAc1ET0HLf8c6hzfFZW+LTMsw0SSakYgrU69a47O4hU2AxSlilLFKWKUsUrKs9faIOUQcog5RByHDXHRytiR+x1+E3LtU76pQGqs4CZilAzjnUOb4urZlnv1SgZxzqHN8XVsyK/FNkNeWWnD36pQM451Dm+LKR46ytrOTjHww/qwxYqWX8EiFRjj+eJaLzRlESW/VJ5OZZ79UoGcc6hzfF1bMs9+qUDOJz36PhFZHy5O9GwO2lyONpqzSYgXqlAzjnUNcAnFKuBZOZS+b4f+OdQ5vi6r+AD+/1wcaskKAx3JbTWISf+voVjsClDLiNnDvAMdyW01iEn/r6FY7ApQy4jZw7wDHcltNYhJ/6+hWOwKUMuI2cO8Ax3JbTWISf+voVjsClDLiNnDvAMdyW01iEn/r6FY7ApQy4jZw7wDHcltNYhJ/6+hWOwKUMuI2cO8Ax3JbTWISf+voVjsClDLiNnDvAMdyW01iEn/r6FY7ApQy4jZw7wDHcltNYhJ/6+hWOwKUMuI2cO8Ax3JbTWISf+voVjsClDLiNnDvAMdyW01iEn/r6FY7ApQy4jZw7wDHcltNYhJ/6+hWOwKUMuI2cO8Ax3JbTWISf+voVjsClDLiNnDvAMdyW01iEn/r6FY7ApQy4jZw7wDHcltNYhJ/6+hWOwKUMuI2cO8Ax3JbTWISf+voVjsClDLiNnDvAMdyW01iEn/r6FY7ApQy4jZw7wDHcltNYhJ/6+hWOwKUMuI2cO7//HwXDrMzx/kruUtXIbMcIiKTPXKjJvSndk0u4REUndXFZNhKd1iRSUnE9esLwMbJx6eqbFfE2b2hw1uCgg3TSM1SuyyCwChAvcKDSa4B2gpIUllqhBf+4YRolvs9qQRHxEvShuOCUf//r5OYwYDASmeeuL/rURqmRCXh3tWjiSaAMhZs3qpEnl6pxFtFHvV+D+nIcSTP/9tA0fjsazpe6hs2jPKpl4JaQvLM4cZsAQLQVtmOkHh+LRTJfXXS1VXylzLgn4/ueOsTtqd4rH0ERfgFtRNM675zNgbpGjcuXLJvMpOY+cNM2UwcJSDEaCZlZ/SDYf/mLBAobAEzSlBysPjqiH+ZBiINyHjDN33eqeYBVIh8SEnHbN5Rr8bh/T5UGASL6A480MD+CDKE9Hws23hNTGRGw4zW/H+HFFiHvFscU9D2HS0Suid0i64S386/eb+lfQZfPhKJGiNIHp/Ro+En8QTWSm7Al3EWm/E5qTSx2QRTCfc1mnkoAv3pZQSTGUTPYoUSZ30mZRKwOGAqyXsk/LK3zwsKDCQ8zsIcjW1MNlsVMaqwegMgFtwTPYxHP043mHi07HdVuvoPC+nRTnMk29ALAMF+M/1nDSsWzQNoEV9CdJWigEXjB9ySJS79mMP2wr+YffCI0m4M1Nn+mq7+73F8FolmCmqaru4DBu3spyDSw+cSW5NTWKsdj/d9FfsPxcgRKPvks3vkM/WuOv3h9LRtaf+rZd6PYLUIigr+s5BD/YOOBu19QhrnGa8c+yr9XMfW9b9eRmRr3zSr2tn7Auek9VDtrH4jN2QAIXRNuN/7Lp/1UtZvkDlJhmIlk4+uERFJnrlRk3pTuyaXcIiKTurismwlO6xIpKTievWF4GNkxRN2RSUnE9hkuNQuTFE1GzHCIikz1yoyb0p3ZNLuERFJ3VxWTYSnXeM1hnOcS5QinPcVQatdX6Tbqh1XcfNWqdlZLP6X07QrUqVERSmCX8ac1CXmBOWJioeLevP+Y5GjcCmg3BrJHbn/DIr5ma/jqpbdNCSJJd8UTOlxJoAsTlfwWF60PS35NH6eAiNbE8EH8DkpInxODL6UL6C88TIozhQoSS263JeiuwgF0ync4vk1Av9MdbF3LtnVLDb0leVbGwEIMm1XjKZT6aKd/E3Idw7ihZ3JX0QgoxPRLw2/ftdSTAu+C5392K4crV0DmjDckCdR2qRyuAj73mEniJXAJ0LC2C/AuT/Pj+g5oPzs3q8AAARni5qXZ+Wd5iEHqk4PVRx2LqN8b7McxkkLBKShCDnEqrpNak3GXdnUJ2xD615VWKPJGPMg4wP4KYTLAy4WxekknraPooMYXSAnxIEliG2sUCZ6hGLByUGavGGFGaoxcFktM3/kb7ywhBZQArEopL78tCpJmE2j2lFCigisTmDtz7ECDZ8511Qf8bWJdJnoaKPWPA1ROAAAAAANH3h58r3QfrrAZgVnAhI5aRHaHh9SkJKjUFyrDaqYGEHmwqckYgAAANQZ526OrUbZQp996RkrjcMNI4QAAB1pQmNyGkxqWKTYY+GnO/fGXj0wO0ZYjkMdaQ+DlEiFxpn0NTSscIKR1fzvNtS1HUbYBHaDvnP8/xCBf/rFETkwTXgYopGI4R6VgAAFUROdEOvKlHiZ6n6jB6ISo1FtXNZuo7cj+3nf+spv65Deo6jqNsAqUY78ZUDV9lsq22K35PKJ12uNa7zwmYzG5hKroRWhroAEX7P4aXQWbBFRt9QUe9PstS6/vryatYcxYn7HmJ7R9K0+GtmEacVpAyHKs0IhLCiayGiyc+vhzlW8MDKq9rUsrM5JXYNk1fvcqsFPo0Wg2WjN+07UhFMsid5l+Dv9ZIBio3Xhd7y+uOq1dJ54M++OahB5iRAZO0Jqs+hg4xPxSe6DM56NTqgRLoA+Xt1i/3mmn/TBV6m6i3kwHVj99xkjxPObSw5YAaoudXBgpoKMl2Vc+FNBRkuyrnwpoKGZSZMSuLNLrkMDwyPf/IaW5DKJlUlJtZgDmNeke3w7lpmYPNFCP61jAtjg+QmahjlcRZD1upoVr8pFhBPnPxtxW0pltcbJoC7bg3obBDbBI1XV/p9WQcdIpSdJr3mhS8VJ1wIYg/zesFvNK0EnUyLCEPOOrmYl9wsfVMfY/MKSwKL5P1RXP8AGf6e0TyiEaV9NoFU/yWOHdjvv0PAa4OcioDiv4GxieWPCrB8al6yadKNpTleid+1Np1bmTUfOs8qIWWeOQt11hyF7oyE6fUzxzlzTn56Vm4q4fo1+kZq9kh2tbotJM5qV/g0niutjQ7asRV6FT2OiWsSEcARFGDa/Ml+DUIZWz/vQsl3UzRBJO6MSi/jqFR/9jM9YXIMzI8bULdQmOqUxxG4/lhB9m+fti5W0BpXDVhdJ9+0CC4FrnIQQPBGNPhaleKfADv+Hw+cfG3wRA7zkr4NlpPI6bPhMCaUdVKUcGp1fhpjdhyTa4QZdhk5DFFapAekAMTlqrRqQybJJnW3BdXP6/ulyNcFLDfEmEDk/1G1lK0v4abmfPB93xvGlhmxH2v5mSzHn9Cc9e5E5UQwlrrQ/vHHzPDd4Q4NSbELhH/CzpygMVc00v8uFAS/B3wd8GFIqmjbwf4aspZXafKmrUy3IcF+p2tPvqe3vRoxWK6yaoP21WoswOlWfbgwiGJG545ct1VoTbkllmNvuMHi9CZQj/HRTdl7Nd+LPemVkLYkj3x0ESbjePDzDACj/6sIlCTNrGCtvKcOgZY/Dlyq5K4Yiq2K3EivYuLj4rOBxtFWcM8bO8WwMnN11Ev43mvv3GfkUfSOjB8Hg7YCJZfyR2lwhdXCWSN+TqOB/o/iyyFc+FILCrJm28FnR2MwROr8+A2cZM3jUSBrbHbbEK0+9jNJZSKkZ/z7/eY2ImMq29vXNWLHtlbPt1XikSBckqZmh39Kq6NyPTPDMuvelY3o3pVIkfAzN2evKZx8utpUynlwZsEiKxMMiEUy1STCSMsrhwAO+/wJte9/wTa10RsHjKoMrMUPX4QNHgJi/mYIV/J+VQlsX2ajIcCCP6PI7d2/qf1QPt9VTerx2EccTZ9TUSziMtpkLbjNlj7xiXqxuc4tEBMgHuYTNbVxqpnx1SIdgAAB2WDBizq5g4C1d7KFP+/D4ddeqNl3qpBnLntZhX6FXv+lJC8kLSmtgAABEnIHVjA/xASfHAVBW1OhQHR/6jpuJVitiDWQAACAZxZPsLpi326YJNhXjN0mu2ETtKa2ADJ8sIOZUn1vnBDqAFiWlbdmrpzeDGQa0WzSL+wbAAAGFPX6q6tkRfVocWcD8otHn3IDRsyBVZNYgAVDuAVwk8cv0cbpxusY599V7FGqC0ih3dlwAAAED2/nSRzKTSeWK//o9LLZSkTbMDEOAA65SWyPguLyhVMcpFLbJ16myoch+GRr67/WNwxK2qdY/nkiGfxrFVS0APoGJNNTCIPOgahbPzkSYqtD6qKnugAAOrYPR4lMbPMOomq27yMZHUVtI9xeg7JCchtU/D5f8I5clzy8BTUy+QSxsrzcwfOU2o2x5uwd57urtZl8o2VnnUsOsPhcTK8oM59JGpckenoWI+HLlSNbC+mMmQI+iorHybPmW5GL1I/Mw3dSxEqz1i69OBBiKmVCP3SBGzW62PhLkzanWd0vfLElTlJWM5lOb11aB6OE4nr3Su6MfuDt2FxoNPuRCkdE3or4bGBwHS5ZsPRMx7XkxJoEGfisp9UkaWvtiN1Vg3KmpC41/5Fpcp3TvDjIanVa2jqBm1VbubnAj7gjBKdKo94+p4aRQQCNxpJMyM4IvQX3ZyjQhlVW2giTGIRUuAell1AhLNCFsIgc7LqBBDLmNpvzmLjg0l9e+dHMr0VpOR0/YxHXOiLMuaBPJptJ9inEDoqwWGokBRSgxsC8sNH6IslaqJBsvoE8plbvGkOr1VaYa1w/umnPcV/gxlzi5AZUpAlaEN+S+2rVopsP1miU1uHTVSePSbLDi0tkOkaLaJoLjxOPcihvep42yMhzdW3f/vSpar/o0ndUh0JwWyQ/ByIqcvi2ANOSmKGcVIX4Zf3aDqG1vfiGcRx+6jQ89ZvoxIOG627eouQczqTN7emveNb3snUkl9Psqlu/wUdHs114FypDdvu7n2yAIuuUaK4A4fI8wOcpSrgIW7UmldIrgYtWV1x7J7IcvQoCE8ibB79hBcFSWtBK/MLuiebbAvKbUdRtoz+aCqbGQcB8bep+Ik2XnfMLRj5wSd/AxpagLBHH5+jXyUX6UTn4hNVtJ0bpl9ent/KQhDqgJMZI1rtmmVFga0KgDgmkU3LIAFTnCZuVITDhTosTEDYeROTbJgUIgo8C3Vg4C43bWD4hsdpEnkQ9Os/aO/bn7tmdca8BcTEpgJlVyn5MvxlBLXd3fsXtQAeFqQBVedxGkkyQk2wfRtjrPsepNBYdIlsCF/uHb7Ep9VBKgmjcQcSLb1+AjJSymjNcMtkNdO+s6qGyYmXLmhC/7kIXJSCc2+rYumICQdvDXxcT0OcKTH8DGkBV35FHEvIYmEZeuqv/5YiQw3O/u7MkcWmEUMwylwvI4OKkJzf72UGWvksf5WzGlpdLTX2GrU7VWeU+XLN3oIM9UfY8wDsTRN2+1tCes0ya0WGAxjKheVC6wxFnEjwzRIT+YY1L3HoRIKOPKgWU1YFNzv0N319OZHeoNFRVLU3lo7S+DcqPrqRxRJEslgw7SwOJtQfchdHH0MBr1Aaz1F3c7AzWvkylMO9be/GkzydfJxlE7BZ03CeWyBvr0adq+5XW3LHpRaFO3toeyz2Bgh2iFdkdJ1gCQ/2KYxIN2mwt3EytqXxjKhbrkvItOv5q8bFwG6oyrEbnjKimgmXKXO5mA73yP3bW8kRinzm3mQprYAAJ1GO/GVA1fZbKtsuqCUh4JbiuiEq79twYTZE2ZKFmS+9/bBuOh7pfkOJ3VHpOTNfpSaIFpU0OvKczzV5D72ewyXI9w/myZ0j/cYomtx7TD/wIBzc2YutJjQoh4bDLDHCtDygEikTTYAsjYq+50Tj7ivez6PuLUl0ieMqZtjnolvzHbo3U/UEhF07U99NOKzJsyMOMLF8iAzeFEk7sd8H0AULXew/l8e5Emah/v2qSzqgnP437QlSCUC1gk3gi1HTTj9IqQ1kb7iu53e23UAIIX+X5PYBoIjVbQrO460DsPib1zIPKonTLM8Q4ezSMwXUc+ak7qkMcsMzPEU8FUNRd38jQ/MNGDywzM8RD3QuDK9HbGJcQ2LkBc+FNBRkuyrnwpoKMl2Vc+FNBQzKTJiVxYOzz8UnPrvaAJrq6CZbpduNQKBLjLlOmDRtO5OaQc1GmSvWA3hmz0/1kqdoCocXwod4FlvadBjsTdjVXWhSIkoEPM2ckcGt7Nxw91YDIuO1r9YWUFgP6YuuJgNr17WvChcBOjtDLFtz2qpck1bWXJrn/ZjryounJR+n4LjKlukuWVYsNpQmsmub0iUnDfvL07zDrpH7LNrF+xcQRh6L7CeIPkV4V3ReDPSXSM83nCMVx6Z5U5rKnNZDR+GmyvRTZbYSlK9XKXkyrl33lz4NmuAmC7RPdTMkLCl0/MiXCa1pObK+uPw1T1fD8PoR3B9Ukxset6g9p/9l+CoUcDjbckf9EFsXD9yo9N7kcYLl1rk7GWWIXxvDpIYNyOescLfT1IE1QyRzC3eqGSh9mlwTauT8q5/SxjJmIdNEjW0DoTGWrbVH5uKbGvD/kVP75ym1G2AGPHedV+2EKTFdN5QTXgim2TWcxjAaTTGm5o1pUZHK50XqJT5QMTT3OAI0i3b1S7B/piEKv8EkNu4WHuf1uqHMlLWyEGy1mqPppK0TtT/PofBcNHKtW+cDLdLU8Jf4RM4Ihuo4kVfeET2+0CyPHlvZVGCtHqYqq/kr6BDu4GmOnN0RSysgYv9Hn84HwyTnwz8AAQJgNvQHIoBJYDXfFfUJGAbnA317zdQ1S8XWNHZzoCKWcIpYzXc3TyCenOz/zDmUIzCwUXSt4ORB3HLKT6QAAAShRuRrVYfBcXlCqY5SKW2Mh5NUXCKaoyD+xkjHYMpEuEVdYauoD0CxOlbuN2DDM1g3q+vnPYr9Ljr+xwyfvHvG0dQCP7W+J5G0PQa1+xxuas1EyxiuyWn10AAJF5F85TajbHvI+5ICQ3ho7mkgXQ2ud/3M3icA7kbVQ/B4XsyOU5ExhcRmBhgh/Mm8xvcim0X+M2gS05oACO0HjE/z/EAAEQxCzwMh7OK+OBTRMbJTENUBzu77C1zEwCeeARxXBLGHm9zf1P8QAAAABFuYkPtnlL7LZVtmquGpC1NWZOtUUkUXQ3uO5Rzg924dj/VkU9oTrFvofaLGJZd9DiCitrSuSV6q2lnhpFWvziDB+AEoBVBg/ACUAqgwfgBKAVQYPwAlBu5HQYPcOoC7gaIB49Rn2/km4w/OKrG/htA8Fl02AmMiuN+g19xrmikl4w4gAALupZbIkY78qguOvkRIQUMmJvVbQOIA25fkn68VXZTKgDqAtEvE3xCT06WOYKYfhsRfn4E/6DOBahef9BnAtQvP+gzgWoXn/QZwLUL0ZWFC89atWbLH3jEvVjUe/dKE5ejtuyYq2ku//emXsA2T3YHm+baKzJGqer24w/Q8Mo27CPb50eSQE8lNwVHvN0N2Fcnw0ankg1E0ZhrL0iULKuiRKbZjLZjcYpzqZGbXusNVE9ojLZNyqJ7Q/YFlexSmkkCFK9in196Wsr2KRl/EdWMD/EAAABRD1YjwEnoThU/g7b3IPb6Vp9Bo33MXvIfIv7IxULR9jiDc8KOqIEEsUAlNlLolNbAABuPAJnoAPZ0rh8Fw0cq1b5wMtcNRCgu81WDhsgd3XthDY4ukhA9cMvg0bivOYZOeTSIPJvphhkyrXzk0cguRXkt4VAbtp/qFcFx2vGjIq2IdL1J2a1h9B0YujmuXhsG5E21P+xXICT/0099sQIUFXlr2HfGU/wgi4uEchVoLO5iSmWv2ifUH5szJrabeSKUZ1VZrYuQv7rEjeRPC4lENnuP9stfZz6ClJK/Z0ENMzbB3qiXm2hVObf7HOoOcsdIIp3dREhxxat13Bnzbqfy4tw32g2quJ9AYj2rZ5a3wOeGYUxQxlH+Oqbrg8iLBLUDHMzcsNe69oF2nku/MvtmDuUipfblvi7w4ozyiRyl+XCzNUXqviQAwVu7Yk8/NVsuHoQiDtcnD6VgzSLssZAW+DzrXzGMd9ahA4WLGKhKRru8Jr6kQermBejFGlDkb27DH7llV4W1ZXYrq/AmnMCgqenIqDXXtO7ao1BjUaVBazuNO0yFRk89O7tgXEWwx2SEw8Y5wZeuLhIbYG+al+aNUZ1i02VwSvmNFZfj4MV7szx4W5gvjBev1Wz2YHjFXhT73U5XPSIP3Vtk89yhfFMvuhxfkYtFzT4Fcy9YyeHg0kY57s3W6SI8feUdEuY4clumZTT4I7nSdU3N5yNAocDjzylMhCVmwMxPqafArmWAvep/jtbElHAzEKAUYTQSRNVezaK79hpOWo+PcjDas7ziaenD+ohKpvxBcjuFO37FNA4Mr0+opA2+VTil3DVe6je7WISqb8QXI3pOTSuW+eZoh0nBH9QEhMyFnFjftFT2LRTdjK0aGHIm/AI3OZjQIYM5h+JrIxUEKHBmEAk9GIV9DpcdJtFF9oI6IjjJc0rAxBE623O1GFU0c70kT0AarmPAYFUT6RcszvJsdYvYIgr9za7q+93useToKUl9bJwgTHv+JFceagXMazJ+9pNWpWLzy0MTw+dKO9OUqjj2hMGDWyJTWZuUXZAEnjGV4nH/Tq5/BnoTyKB0X2be7N4dRlNJY0x9Hxnb72bN9jAPGZggy54sp+mcIwUp4qrmxH5xx0aPJiYcCU2Y8x9eDRiLWlCaTcgxYbUPTvx5LN76yn0a4PTmSXrWlyl5QumKRqI10r5ofI20aXRYMs1qHSj5lYlSQdAjVUVKkmpgA0oNXW6t3qVvb/5T6Zj2noaeaQXGa4BpG3U3HxRkIvDKe9Yk3Ac6Z1nCgtdtjpB4voL7vgPrWaiNdMGTn8lHLpilrxOmrDy9eU37GyNF1CtlgfcckMMJAkV1V0+noosL45kiljjIjUab0j3cE9vwvjMPkPtipHNJq3bLD0VVDRmoiiGc1wGdMXG7kfT6KoVvw1CLZR59wseD0vyP5a7njIHFavLaYjKcI8m/KR6UIP8153M9VCgUNAqT9c6cuCcEA7464i0LdI7iz3GP7C4ZAeMrwFvQiFEqj+BsTK1lkUUxhP/eYdV6esNV/vniHJXW48tCp7NcuVHUMKUftUy9No66EUn1IMeREAPXtImQruLBaVCg3iO+suNuT7sMfqxiJXFuUgaKCicU6a9lFOzd+CMcbk99ep0mzfI9dGkaYhP01lK1orXjkneC2B6Y9mA/D5zBVp36JO/Sy47XbY7fp95IAcWoZwRegu2KmlCMGjRf4gPtZXjzwquifi4gy6cUCakm1gIRs+P22PN4sQnvn9A7duxoe4ZJG+mo7W8oU2cew89zSi1e6eJxSQO2lkEqgLNFie8qUajTnDS9q+aUiZ0HW4b7L1GnOGwqNXP4LV/cBCo4yrfbU9drCrjJNmpYf3Mj4sCRNQosqA0wnzeR9aqhXPG6PDbZgUHrkkKIwqRWN5rblnzGZlrHxEj0GO8hbzPCIosBXqkY2YG1RJkaCaXKhbC1f6LEzDSH6wRaV1lirM9tL2J+Pabd/2JV7LHNcT3QGCIy0fTmltGwbS+NUg0bhUCEUJ+ykbFISRQfX5DE5zJNylZ17j+13PFD8R8D+0Be1DHQCy0/IxqO/4FUcu5Z4S3UiGghQNrIGKxt4CSNpXrIaoo5g/Uym8/I8WFn4SN3yzRsrDmksFzVq+IsfA7yeu1Z3hstLqxbOmu3BcjHydJToiolI+XLBatw2TyR3vJhk1LGBucQmFM76HAKPTnVC1fhIca3juYfKKDKxeeUS0heL/O8A/q+5krWDfyX2vF08PnHK2oY/0InTH0zRxJ+HUNM4c5s3flZrNq8mgMPHEIBo/Cs8DUKoMFNMy3UH4hVt/U/ks5Jzx64f3URpzQCyoqELYdpMz8IF82Y3+JrjVwWdAvRz1hebCtzdPWtACjvPCNA7X0hUb0iUcQSsGYykHo8sg1lzmMgLkMKPqbLwkzR6oHMHUSmH4aJ5BOSfL6bvW0pQwAEXCqrEqnt3NQarunXxq7LhNhBFuP4+imgywOqXULqb5qLpFaoYwax9adq+8kuWxWjsWn1S0xhofLzdiJEKDwDx9y3IUoOWLRE4paUMspPSFzV32d5BQxLTDzIg76zugURqztHI1pYLv9iFGyWTUsKqFozkEegxJtO79NQ/8D3Iw+gVmGkajmW/zNH3xZ3Hoo2Y6FT4/yVlbFeSLjy2m8VMNe3wlv6AN7QvV80a/buU7OreuD7CfVI7vR2XjHWVxpWLsLDR0Ou62sWpmtKxvKixH9p6HsFcnslKhFDHWUrkGRI+sl8d7GkydMzev4S0AG59wCxcZuPpsml4rNyGwPhCizRI1wdn+e7wBSwBmQDxGR/WggWxaFiXiqg+U9/WUAk6VN0mFD43iwLmnYYshJVAOIbLKhiIoFJjLo5cgvcRB0mO+UQMyjCfp3W2d+3zlpIpXfVa/oio6wbDx348OYkQz0hu6MJYjZegXpXKWAp9zPAykScOF1b5YGtWmskPFu939Fge3GHAzitQEf/GLSSHwr8I2FOrBISESGHcMNf2h3d7js+3kwQe4TpwtFPp93RKvris4iWbDf/OAEwAAAAAAAAAAAAAAAAAAL1XBWrogsmZFkpoYpxV1ZpT+kPSZnmDNQYSDDANya4rjpUimadYL1I7s9IxcI9p5HaBV5tSQ1YjtlBM1kSi/vKUZwjhovIvnPOl+q1pfwjbGbPGcDOK3ydJhYoxuVfoOtIkCgdMEfV4wNidWEHYs5XitX8XxfAAAAAAACJR4YrdbZyV9UGg8v5NTHJCeS6K1uKXVabw5oNkciJb3tu3MKZLM+j2PSdYDiLHW8WzPz1wT0yPIP2iW+Df99hunVk3SGoCqrB6d2I3Sf9zXRnirQP6cjg6xYLSICtv47RrXeRdLniIj74IM/9nyqAAAAAAAAgiY9TH9gfbnqG/lyaFqyBabzCiIdF3W+OLOSi6m1BIVsr11nwv6110G1dc5M10+1+sHwxykjxRWXc9gatVc8hY4MU4XzH64ebwAB+f0N8VAAatfu2x3nTSgGQMDKp++ArBXTUwvquJG+Dyc1O4X66fxdw+vc+GQjDZNvHnK+XN4ZZEbERvVNeWstTvxNdqnwFXQrQ7gPXF1MrTP180yjuNPtxSRKTucVdfYmhP57tVqjiZceHiQTHKbtUs358a1HK7C7u5CRUqRrkz9tptcPiIswtPd+jUCEw7i9dTAU0tpTTFBZm+fItmDyiE+0dhA3nPFjJY5N/n52y+XsfjG+87OSEVa73AAAAAbJrYXhPi9gmGrbJLa+T/t3C4HjD0h+t4jkPQXYhJRfI9Yx6iXhqTgxq2c+6Wz+jIATEwTmdBJBmmnZd7aG2vzKlIxYoI4ACsSMYOQilqiwoiS9uCct76qTJnJ3b3siXE+VOWujZEiHvOh/K5GDiyBNNYeCI03egu2q+0qBPbtdqA8aDV4XJu2rsYMmRLO5aG3hWwop+l4SQgBVNb12WtY2sCsVG93hJ07FOOIUfO7H+3vmQrpGSB5hEA7DRs1FFHHFB6rdpEAAAAFAgvYel8rvC0uq2SgImNdCZj+CiC0vnuwWKESOGRiTAgyckLAhcdrX6wqUHofuGuWCg9D9qoDS5iKdYJ8i1+7lC4nsjRMoQABZmbJjQ4Ukf9yHjP/4dEIK+WpqUkVLZis9EDN85C+1i8Z9HQjG45HYonvWmI+AyzM6PlC45GExXnjiprcCGrrmcSknimQ0nf0cx9TxUAl/6GXRFaakjnLD5HOjn+1UHHatEIEe7ym31rsjWd6VQASdXPgwTW2Rp+d6F41RmQr0NpeYJZmzPz0JHMgziQq03zBw7feUK1fnQJfIq/R3GpjGF++xuI+x6vtX+7x3PCC4ZYwfmZsuQy3/By9o7hmTnrPpGhJsL4zsF4Qc1foZgOhbrQXg8bi0hu9n3/LrKVzk/Kp9ZZblMwNNJ/2Ix6o6KNNnsW3Ce1AWfKKOiqAy0nyn8Cm2f2rjAh+uGdgKWeAZtWt1pSqjm+ofu2IQ8hcifpiK3JdjOOcQ9bg1YsDGA58HmTxIlQS9T86jpA84pwkGoLeLjPRYAAAAKKLNsobukb1nfDWk3F/7nQhtdzo80wUmn4GprUWpFZUwOnj8McdDHSMkAg7O44TJLLNifnGTkWjFsRjcYBjxfdMAAGBKXukDkN0otKeflvyTP8dwrbBKHd9E1qdtokfwRU4tlM4TPhWxYiHuSLmfoFV63i1r2qKor1RjUGpSGkA0NpLtZ4le7uDRbr4dnSg0FKtsYi8UcOYqg+GqbzIQsPl/rGQukXkA4haXgSnizIN6q6QTowhg3qk/9dV7yLDHWngLqZ9sWsQlGaZCLhRNX/n+gmSmcuiR3Bw7bASWLXmTcwvKxbZSN92msVHZ2PwlpkuUHnRw+NetMHrUFvq/lVJSJ54MjTOXtUuYsBvvq+d/HpQNZ0ZkKl94xLjj0NdmtnSJk+DjC4XKKc5RXcZ5QpO+lry3Xrttpn9lUZb9lp/VQwl+HsYv/ZaD88hMGU8EfJKAYzteTPUVvYZkR9jWnvs9Yq38ipNK5OiAmiwmpv51mbsCkR3GHYorBPVcPXYaN13qRO8ELHB8EdpZGO4nZUch8m1l2bnIB00IxlXvZuYWWmx9BpfDdo/23NWUorfER8kInpPWhegDrW79RfGutrkvLAp7ZlvqOwo+T//ytV3QgTsIjyQwc4JVC+RxZA20n2kC3ftn1gKmCqJik3xGXpb0TIx1HYgGar/RSignfZ8PzQq/lBo81oMHizjxZnXQtsVm8jDEzywcXc14rERv+gB1IzjU8uDkdU9HdoFYYpcvoOh6lYc/lbSVLVnywAAAAj5DWGv1vnp2U0c0nU0oop75wZwB/2qiIGBL4G4lnlpFT/JbUHWkjH7vz1+zc0YIofDWofdvcU4lBaAAND+RTw8jASRsvkCXWKMQpRoyFqNNoOGiNh3JK/RL8dIApLn+HM7c4z2nIAkqugUGwKNkEiWCve+FjZ/ieVhm+BUDtpOQrugqlH+pzO9Uw/cSg1zyygdHrWeOD1sKxu+or3n201h3FmzRIhRhyxLDPVOU6OhTbTiM7nGwSqhFf6Oc98fTFGgMUTkJelKFLSPjJP7QCkpEkdHoJl/RsY5LEKiWdIvyOhxt9/+EfdthN6s8CLDWAAAAHSWe/d7vYyw/1Veo6bN2OqWICz7Oen2v1g+GIDBWNvtjRH8xj+HCZTC+2xmG1XFcAADDFhWDbz7Gh0rGsfxBUniTzNOmtu7ouxnJ1ahBQISa9emZMMfea3W3e/myA+iMHgz55Db74hrPK/uM9fzloBotTRVy92R9MNl1A6jYi22ZaOOhyFTT/WAMUUky7V+357U6O2VB1UpyqS406UEtS4Fmg0+RAz8D7djRctWNxlDTt2nxAlwMPFHCf9wsUleplACO4qEO4VtRsgRrUVRxtFvFMOIfF4Ye4YR3onzjc5Gv89WFccHMBRc4T6vYt30picwsiuWCLiIqZdJQMX+B3GmAcOBENaWxmD0Rsmh60oqO2XzTwiJ0NQBayvf2dl5UXJIv22pYTPu4zi9bBaqulxP4o14JXMUMvKFcyJunocJSskhRTQihQIsx7pLiDxHBZQcBFU3K9+CKcngRFaPNaraOJ20lrPxyApjsYeziaVrpj+x0UIy0hpixKAAAAGUfuPge78IxQ5Hxfc+EgRmhXxVdG8HOXdfyt1dXuiKHBf3LGpaJ9aWMwAAIivci1pyfB0kFJsT6MLHEacNERPlTrjCfJULzDuKyApAwHKrPAfn05qqpa0zn/y8tRZBp9vyo1Epf9agRaD5DfMDFicSvuqFvvp6W5FJe5Coq3SDdJB5MKfL7rES6r5hqKil+kHC5CPPGV3QytrFx/HPJLyEf/1RMaQaJ9L/jQxn2Bg+NwfBdpoR/MQpWPEQVFOEJTUJSD/okHRmC04yi0cdHfpSHVLIZcfeq0J/lKBImIG8saMZsMZVZZIRgq9KMYo+oaLz0VDLn4HqWJzfbuk/HGzYYFW5sUO7pPApbNIjeuLHj3NddoGsCTKp1Ahjcsauy+XbJKXgy5UHVUBZEMakvzFKXDbe63nwDkqVoy8poJDO+pXK2x8An35Bgr+GEfiOq/z4fcuwzpBbMFbLJMzub+bA2xnVhrLMLoGIu5cU6w6ndQoSF2XoucIktD9kgnpf+unAmSsA5wzwf0Ypd0OvLq010V48EnieqUgtBRQ7n32OOpGEsJtPvPPLQEPLESIw8WBwUUiVdqu8KvvHG9SpE16QR8uUTKpQcgDxY6RQuUdUqEVdt7Tl587wjZRtvo8H+Rd5K5KKTof590qGZPxbRXB/rakJ7ZmR+vR31nxGxuhvXsR9r+cL/QjZgc7qFP11acQv0ekF9GTufusURmZEjIRXemgZhDoV0R7g60oBVTWP+BrsUI7hhwHiyB7HA4vh0ATcYdQ1hI0qVGrMNRlPPKAA0+T/fEdHmwBxt+wFk1MATiRjvzueFXGMwvu+MhP0ODITve3OAPx2f1+jLRePi9uDrLr/CXCb1A39gU8WVMCJhRfwp2dVUOpMhB5yxJHj0lAxIvnxzAxQ8gxvTTU+SsGgOS/dcP87p6TW3b2kbpGfDuW1aUgksBYVUCjBIDyHu451sWRTSkwKIkYEf/UyFpMP9hnfqxcvoQGYURpR+uCsnLPeUygaypW6Q11g1gUHOyaDObLXAWskR07mW4gTnZ9dDAgTwiNQ3UtSrdS0qxzIqoAlMxs2eNDTBTcgXOr9PXzyxEIKHolgYWpSDdUMzr25KpBE5refq6i6NItKzAXyKwK4tw5Yu+EEDkfJ38ewIfdKf6S2OoFhUrFZTPFapbjk4vR0o+GHqcsreYYuTeUuuW8nzganvVP2tsRrCh9sCeVv7umymcsBJFLkFGfjIf/26nYrZxgZXsMWv5fBOMNYd8Xi09NKgmn/ld190D74WjJwdvJH0rKB54DXeHNmcikboTyCsbM3q26Q9JWVqYk8ZzCG4+77fy+Xp8RLzFwIPJrX2mjmB6Q1tUNJn5rzSZQLfgYe8GNZ1BwXIe7X//QP1ulVZHdvwQGxXBXYGOfYcsTz8d/k4QQmA+pVUniuOCQtQk4QD7r37M5POoAg1zqPwYn0in+sECl1kTkaPtuJamRRYRUdX6NfVYmPl5U1riMlma8dTjw5ka6wlfK+vFaX0fOQMlA0iKjV+G7MsBqrx1FmUGlW9kbSaLixfLkgTjM8MjOHvPjKlGR41XuBHoJY2ST37/AbOEnxU7SHYH6+AdAG58s/gfDIx/wYqOCyMP8Lx1YVenCuJaHAP6uGkye2fj9FtXKR8a0DgYcK1VuQqav3qBXeCAAJUg5cld9sF04AaQw1Dzka4bnFI+IGihemGOqqCeRbFfH/FheAABTObophxbtTH3E6v/9OSRbFIwUwNkowzQGHzA+QFQBVcbvo/KC+WXXHXNd/rJOUfCAXljjuYhwCIN+kGXUFgMLsY4DPxDqvhyWeywJk2BBmSieiOFiJyY8mx+hLes7gBl5yNR0x3SWbrFP4tp2otlH0T/oWBhhUnMZEKnVP+akdP/6X9f/PH0W9QRmV0/B9RrucUS4PyMBbQ0MRIFEEIRdqwF7DBnlmw2reAPlPkVvBi4q78FX53N1D+LCavSLdak26sQ0c5UTH9Da1KkXzlwsoczDveCWHcrU5SHpb2o+0mn2r8qUH5k59CyFIO3vNr5i6DPUz2D1umAiGc3709aek8mSKt6w7bj0n4PR25HXVV6f8h7nRmianZpelLTnEh0sgdw6qfbKDf6TvmjfGXnOO6FoaRmxQahUW0bBX0dVZtF1mgbpIgYuiHRogLdBrIp4DCrsWwsAbAf4sUzpFiWyARbYsjjp1Zt/VEABc3PHSWJP2jT3F7rx0cTil1QSbeoilyli///FqHW5bVN6qltJvPxrHM6Q4eCvfgE/rxU7Ac1t19fCYjplRzEZV8Pp61i7sTCndkEWZ20/5EutkafLdKMcTlRJbhaWA9CXCEwSwFc70vR814NwrvU4/ydjBvKLWE0bGnKUm0f3+qX9OBFJ/Iz8xgPj0IeeZ6SP7ingk7DL5A2gR85FPUtc06bYYlKMXXur1PYJZsuedUMXQBcJffkaMz1z/yOwHNbdhDpX7x3HhV+eug773FXO8swD5w4pF6Ja4mA4Xy9609RNw9Z+ZCyoaISkApqfVZm/goS88BI0qCdimv/sTCZU1ddevG6cTNqDDqocu/s6N1RjpDZrPBBc+47jS8wEnUwwCZg/UFpp5qJBfz6oMebNUQ84v4aiY5r9JlUAtCJe4XfAXb3iXJ6d3KE+n0hmmSSRhSw+pK2jSgZdflJ841Y40S2vNrwRuAjN7X2G0S69VchCOJMzIuxcWP/QoPx7kshBQKMLIK4h0gP1JBZZg67i3NTk7VQKWzqOoQGNFxpqHaCxSbvkteucOOEF/ZGWUKY4GNXvHU20IzTSswu3ia3MsCPVrVpU50tdaZnPV2gPovte4S7RXf/nQsTJL3YZ7K0r3YKVgAAATz5tsofq1Xf2+Rpjd0SEtttEJW2HLLmKs//x8Fw0csp7Q5WS7AeKRgDJ7fKORspmpSbAFRlDJxUpvLhofubypVG+XDl/gAGnzP6tWIEiGI/vuCxHF7j0ZjABfHtsEGKgOYYypr4PKbvcXPx6x5/uXMapFKuLzZLYeaZvnmobNooG1EaIADFTDv2jluI/CDQbnRlPVzv22AUMrOtQlomzSc/o0ByRmkaNrhu+zb1x0c0UnN0GIXdNboCOM425C5JJ4QkUiM4sskWXIlnvxJRuQPtoCDIKOWjI5gsk5oWGj6ZVfE0hBPQ2LxPXnhKlEHInSRHKJn7bmkBTMA92g1bIsNk8BCYgDI877LX/qApA1ETsZmS/+CVBpcaXj7RrGW6TifZz5GoZZl1QyHSefCPyO+izUy5c8Y3XxPD+c0EqUmIEodxq+7PcnufqyT+yvzXxUMTPHeVoU+WUnxgfZrEf3LhEbX4mqd8qSsp/BE5u739gpSnmF7au4pK0waZMjHDm0hMFsVGVvceSxAma0nL05HdjcRe5gNxWpDvzmO0AAAYn2dO6FhK/XQCKO0OTcy8NArqLCzGaoZmZ2cAugRYB5XiP3RyQw4VeAOitoc4d/E+Bsv6wcQ8wAiPOp3/YlBzOXZvR6Gy4UfuzT5S9i4U8PiZl15RRhBOc9JcfLuiVbYOcnLiVjuVoKZn+MGfXL9jyel0tydKd7AnoELNdZAL4SjLd/XJxg+w6bR1trJMoQCYIcjmrqDoebxgZxelHlxwJAaCOttslJQMNn1IERwTuDMswmIsluCp+QdfdWbkgYcF8t6JXeaXpTdO/AKUAR5d74hpsrVG8dM6V0RA1Dz8i9aZ45cBJWicHtpzBoE2o8qCDMNez/YagZvpJie4rr8b79Zu/RboiFpok+WmBgjgAACDfEpkPrUILpUxNWgaINPgCFZVtwHw1Feaec8Ljta/WD+zFVJ1p1hrRVxsfDhFH92QZn3sN79qMAPyAMlCI9Vk2kiV/a9MQaQD2KG//d9XZSD8JlDwdd0R6n8ecvXVZ5NSx/XYDOlhBZ28do16eDssC303mMTkCDroSr84qNvGa9KC1rmta5Gfqlf4m4fEZiPTag5yoIvMINMsMmkckSwoFz5B6CXn/xHqdmXIbzvFX/8mwmaZ00tAWchURE7M/kc8q8CYeEZ67bibgy58V38W3YJFhWRmmWbpxTg0uKMsshgQlQ9aXsefXqH0OY7eoitPr5d+KRRnh8Rrd/Z+YK9fi1qhqADNdNgB+/Mw4anmwSZYQ719ikkj1Y4W9QiXmbnu5fkHMpTjC53FFAb2dchTSES7k2/ye0o1/Yxt5F0gDx2zq9afmNP2TskOYggGkajLhAgg89jNYXw0yJKPPeHeBdaP9Xlu1iZQPd3tz3ru0X/nGf44UwQqVPIE0XlYPPylqt5twzh9IafQAAD6Vha0uY9x6bBfjTHfCdAEvlgjoEujDALF3JTAKKlasP/vVkyoSFx5F0jmFtGH29ERjoTFI9v9NQ4ACkWalGUZO2DoHGPotaFYveb1tqve8Ua1TkblePUOcEZtJJUXVDyL2tL0Hq4dnLneLnGPd7NZKX+KcIbuoOPBaIfPeii/uzY8+BUBa3kMBWXk7o0kEKOyJJY97hhcvsX7m5N6MgRw95fD1w4oogGxzsb60zsSl1uTNOWySljGMgwfvoWPONopAkBXXp0QQpp74dUIeT3gc3rwO2qRmiv9VezkZWby4QxuAAYSy4t84V6V2LRqIlvFdKKAj8+LOP5icndaHElznl1wweidtIOaCi42YG1ByWNiOa+Zgg3q7UKDvweIXafUZyamzNXc4XCCo6hGzngUV4R67PKmAKy0baTDew86L/SBYrrUyfFg4UNc+B0q2yNeLrf02zHIHP0lIIps1OF0hTVEJCbv8+cGm6VtGfgzuJlvTNimk7PCocA9R9kBAh2hqpUt0VKGT5/jUwb94rMyFbBpHU17w7+gAACIJV4tZ91HXBViLsG3K2+csH3Mf/sqBAtDVHd6QbC/P++8cZq3/1sbb/be0Q6ziJKVRU1bM+pw3iYj7lQi/vtPb5bmY+HpOv1f0k1eWsCUbocgDV/ix+OvrddbXaA9z1Oi5bnhvaM8EXNtFWs5r5bjZWJT5Efp2MsMDZfCcZwmXUxoSTHUDDmOwno1PyrhQZIlHxcUkvN2arjRmXP+3/0hYr1rfHRKpMa+gQOdtD85y9oTLA4ZQr/AaAk2sFtt+z2UxEQN/TSsUQwB6m4UFvvE7s0XpS2wntUkr1LV7xjSNf1ffIT48PIrCSAS3HuuWqrNKcuEO6KzSbZWQQaVGnqmewo/OtlDHm9wL1dPexyMp5c8Xq+Nrf2PtuzUswuqsWe2Z0gU6qywYEL07LA1U6r0L2wgOoFVQHJ0/310AmLFtHIltYxHEal7oy8iy98uicOlt0MjEwOAgCRUcX/brMk7ensNV+sj7DPOvveHjBKULQfO/eVU/1nWcXdxxx+zMt9wob68ppJyN1TG75IqcunWFlNjSXN0qSgYCxbKbJHHr3cZkCPUO275MPRmne89pE/S6H7UuN/tVEiCs0WzD0FHi9n0TaUC+7xO6QFT/6VFoikBvKJol/U+ibibLFEDtrJgIslj0SYXaP7xASvR+ix79BLKr/4N9y/I0wrKJq1sLnBGw6YZLybIvAPoirwE10AIeoqkb2c35sfHH6/OpPQhvcWSqdUXLB6z1tNrQWZVQ3Rmyaab1ohrfSW/zNta9kCY63UZ414LNRg5UhRrn13byIPukCBJ+ffoRkVsJPrGOXeWN92vwxhBR0Rce7wRLAw/CCeH16AoidlWKO+0CY7VfwUy15fY8TCXyNBTm2i4+0wJH4eSA35kQ+OXyDwQh3QXJAxHfrnfCT8tpeVNyLLFF9AGi4a+1Kv0k0DfDBC2BIZABRCPcIwvLNq16B3WlY4dkJ5RMrUuZzR7VcPo32bxOR4j4wHYMOJxe6EVf82ybrnq35BI+kijsLFakitg0VbWyeImKvuLelid6rlOfcAtlSiAu/GLlxSdV/tqULJSUtOUqOpIvXbGGZBasWWECD6v3BuSEvoAAdofb+36ASppjK4FbHOlaZ5msl9UYWoXze2wgiGWWFkkkQb2QDxXdU7quRkxmFB/g3ipApFyAEbPn0T6xk3oulEnmO5mZ9uOfUXsstBxEhDzZioCGBeP5iNfuUscsi4R7xbq4wr8HWKXLVIJjE3DRrQ/N35c/lb503xoyqFBkQLYSiz09DAiJ8ECZPrcoAbbmWuFLMQpOMchyJHZIyJZahMKLVSrL0HF7Aq8Jbbivbvw4XWcOWGB2Ek4By1Fy6K444ISMbOnjQRfx1DPqhmM8pSXnQRou+dGxPiCixQfsAMqVksGUbyBTdbDocaXW3pwSlYXJ2I8oaqYpdJ7M5Sf12k9H2WTmdd4LpOJxUlMZElG2a3bKPoxhTZBUrRwxLRtznfu5cDFFmhW1Zy01cqZ5+MkJNub42+lTRwhUIhmCOVz/5UzhdgiHrr57MlDtxIdfThBxSHCd5zdzar1dzBLnW83UNd+zW2z2H2Y9gRTMac3odt5E7q2vHLsx2OKmyLR9O9E9+j/KUAavDun86fZ9FxmD4uR05Hc8oUejYAhKt0HqOyJmiEIoHP4Uo8TDh3+A7HV4R3l9jPJ9pj03Er3VlW+CCPnNqx/OVNd9YvaMfGXI/t6Y2d7XghjdXJS+WXZkRxM31kGa1KFpewML0Q600+lCm7JAITNYvWqpHaDdiHZju+pBlhCisvJywe69m0IdUxfvEkFymIR7yuq6wWDvoQsJzmo2hAXtpha+KSAoN5LpfDv/kXYsFEMSNr9Oer25rSvXRX/1lKXlDE3Nr1zSuVcDcMogs/vnYp2upQPAymuLCi2ZcapW9VKoDUn+XCvcT/IsZNGEfWrpdvGK/hKwCirvbS0RRpN0X/d2eEEbiHi3Snh56v17sWaRLvNYrqh7yJGwCEgasDukNvG7a9h/ZvIdsCWlPsYrXXZMaBaNZMRXXg7NDrzLztC6j62DqPTBx4bTwZPssnM67wXBFgmNFMItxPKPRvSGy+siU5Lw9Nuc79z/dhkmVRkhz3Z+ftvSkl1G2cRy7Mdjhkbqjioa7/lTOfLQyZ8iHwTCf1QUP11YAhevy2fBy0N0aNItwcut5uoa79nDbGxTzE857Aj7l4O02wyg7YsQn4haPp3ooEu/F5+71FhCeRrE/lqESxIaW0A9H/f5uYrkYjmA9EGU30cC1pl1Bh3ASMMWilPhE4MUAdPifHUt3/SQD/H2qgcT3gOrZ1shVXZA0mzUC3lBny8UibUFXN/mRhcPfIacL+VdfaHlVnfyCLnQCiAJNNsbvp1MkEgcc4hPt50A3Oabmzs5yRAiUQvKr3BdrCr23EW5PWeImykaW7OgzWsSBTD0NrLguuvgV0ZBTRng5MuC+AAxqJE7GgACN/GNjagQVkrgkk7KMh3z9N/vASVqSWbLNUe0+1+sHwxIzbVsN+5X7gVsE5Wum6awl1I4AAGh9AxOQ4bcfyaRzwR0ySp3XfWZw32ueD/ujUiXG+EdrDc1rI/IaxQtF8Ib7Jz5CzFaqV44QILgt/QxLIiZhwItCPDTJoCjPAuzsCHodlykfinTUw9o6dgb5luKuhR4n7dNB61OVui7whAhbVLe2cvcd0v4zNBjV53hvX88Mxd8p6ZcNlVvDy3euPhgaqUJKJ8+el9JN8hdaHdHRn9ba/XxklhFJ0GCZiFGWYMRmUYMoaOlNlzmjBExV5X5DLOh+W8XGM3b3c7IVBbA2Tp3I+z0yI/7aiAABZf++c2iRylR9n6iocKprTfkzVjquFZY0p4OUpO7JIvYxJxQ6LRa/naXdoWbYFx08IrEc4AAjMrfPmWJXbTJr9SMRvLORskr8234FRgt68pVm65KYpn0v7ZY25cNBTE95mMvRO4wSbLe5zsyIX+KVYO/GUdAGp/TgNsE1pYTwF2XuRNX7a/kqkW07F7Udz6i2sPfnuQeEMgTTMFMasMIGG8jaNZK1z8fAZXRTFJalS0+WZl06DHOiUBnUXr3RtEUthOX/vGH6LuYq+Cks2rXdQ/1NBC8Vr3YAeWlzwbEpbV038OIoYwERLWHlFmnTbcaPKzn/Woz1ECYlMTa8ctZ0g+f9FJy/f/160BJipAAEfbaWI8R1g7Etib1YeLXRilsO+HCvDJDYQ1p8ubu46vLVQfGT4eUlsj4Li1otOmrFB5wncPVR2DCzbn4167LSYDOKtWnzF/SWE5XWANkPgmGKrmKaN1B00rKB8POZkClSCix50YJqBp1RyZ0jYiAR3IMHdmkFM7mfMSf/wm1dUfp8Rsp2VMqgQLPSeYESoASrPtU+Y6FDbnchAtlwrwhOT/Ru/agdUCsOwmF4pgNbi0rVuOSe1WYt1wflHYsybD0Mr8TUdFZOP+6+8o//GuQ3/qsGUgFnLgWykTcCU8HAfoStaxlfAMTYxz+SLJynpQ9JoalGGSlrWkgXMOZffTrw4aqr6lXP0aQTaQg3L1DCWQnA9QQtOfOxcb2I5lRK27SZAv3EbPaY3pYtfYlBbu66OxNMbJFZAjOPd7wFGhqIIpTFUVIDelbNmH6/jCQv0RJlZ18Ja9ix57rfhdhGR7kNlTZjM6AroyEhmYGsMeZmW3i0zC/N5mnTW3d0XYzk6a6vqdDu8QgKzIQqYSxPZA5O0Tj+eEVn7EHBDH5Ljr4tyRnVHGbST8ZmQ5NEhILF8+fDSyD+D8HyIdXTqMFPO5aJ9CzRSGrPGw++6mtAs03SfNrhzdSj7TtSUSRZpgKYhzKhJUo1J8svGCLuGl9D6iGyvlbmXkRGTqZawsB6hawTFYUrCeizoIRASUWKhLFPenp8HyhG7hcYFY45HjWqcyjk7Z4QZGgfBPtRqbZ83dsyT59u9pySP3CFdEnzUD1hZttScisywTraVODUstgz48ONGcIeZ+vP4NgEMLK3S3d6Td1SnItHBIQRTD44ey/bCFqcRpVTuYMfSt1mjE32JQflyi2PTk4hfTq4Xi5pAWk+u8s4clEEW/wlg6hLZPhVd+P/DJTq4BqIfysYTIt26oAArwFmrAnO0n8LVExy+u95mXg1/4XQ6ny+bc+N7TomLXqr26xpKTk2PA4k1IWnP/r5q0mRNlMlloHnV3gF4KbpdWFCIG5L6qg4WGOIcZH8Vtw9FsQgEIxECyhiXXczbKJVLFo4tzmZ9UPN2GMpuQWIpgCKoH9aWs8NrtUt+6yG+yjDKSiuG6W4Wkuf8zB/YGj7wCU6SeW/SOHzJkN0bUWpaVmS3ep0msRIoS0ThuNw5Vc5fDFAQdsFvmKOubSNT4dkuq/ADOH7fnrw3An2XteBMKWyDXnVWWPv2vvsULlQdrnroK4/xa3RtXN9gqueix0zfB2JyHse5pdNJN3bxF3pslDvYgaCRlbkVsvdMNMlUINnDgcPkO5UqjZKJAfBQxTGGQG6jz0l6+BNo3tuibQZusclK/leVh8P3xmcvFJJVQr05pGey1AHcXjw6fzULUOj7Khw6pjiTkfAbVLYgPSXNS3gAT8fgk55aUv6t3iksW5Jn2kPp7FZ5EciaHDdqkNv7gpq+DqtOACQWful1EZMwYUrw6WH84AORra+vJTgGxlidTrBljw49EQXl4jfUCAVscXv8GqFfoWqWSyIs7KMU7bp8b7ZAA4hbEjIo2hD2hA52N6gtft7cnmvjVbWwdhpPnyzzBlOM8M/17xbamnF3f0hSdCZDp2vBItyxyWBVV4fh7+WHFEIAKaUhP3yDE2rXxtcZ6eV0Y23ZSL+fmmif8HQuC2TB8oLwS5h4Rk/eA+BFOAHsyA3yCV602W+q1kZoFUM7Sg6IzY1xiyRO+IVHewoFh94PnW0RpCTkKAbO8khTxx3MIEXYxLIjrrQ69uiZSdHcvDofAz8amX4IgBfHQdj6S4kgiSLxyPtKUZ9/oWxFJ0eFhzkcNFdGLTfuQvG6RqZD6VR2SbWR7XgSfoIjR3BH3XmwgP/2tvGhKwg3H1R4oXhZQt5Sxfw+yWaOtcsYms8lZvW44g7EOU6B7WQ5di+wz06DDnI7wHbKVN7yWjdz56O+CYqppr+EYysWvjvXGF5kkmjCylaGi9nQQlOIvOToc+IbUwZZF2ASnnslEnvmEU5wARBsZfNqMsLtmZbS5YqU/iS0J2CprvzuSr8HRIA1ybVd/Sw++vsJEK3PksPTt2HKMwe8AdYj5TV51eJi02nhY0iAcTi+TZv46oYZ6lz3abbaAgd8kDnqS7zaLhlt7q9BWTujCN+Ya94AuVHK8JNk6lcypJCOwxVNyqT/JmueopyorpLiyuOILkE15YPgAoYqZajD7T3j26T9U+HGXraEBbuM6vDhneFcAwBH7Aw1zFFlgcv9oi/Mx7dcPMzwDF93vKjVWbNi5VcGR4NkJCuxzRcMnP5eC+ge5YSwqfHgrR9G/85zVSsJMDpD/9f//HwXDRyd2ZE4BKlpqPUeo9ZviXcgBFDmTQC+ePA4Kzk97cYrjaqAOlYTGFlzgTKUVhXL1YoJ6ZhQuxbQv8Fvh2uO8ygLh2ydhHHsTUICiC7T9riiQ2CES6rsG+xz1efznZ9z7SGo1TbdkPHzjAAuLmLaGi58tNPfWvaC5D4tcpVHjAG/Io2CyiXINTVwED0q9/G9EwXd4HA1CFYdhQ3tBULsgh/J5xsaW+McC4qXaSiALkPsb3qi1h+wn+zjTWAEGzPiskd22xBIU0QrClrfeNdhpLEpahBoOBIIa8rDdFmjbMKJeUaAx/bRdeCrpT99TST1L23ISTGpY69JQ0jXZZkbTxDOF5TWx34UjDlHOiAly+fKdwpXCRKXlymoK1AuhGcvT6ClgEcMEl19A3ahjj7kPCEGVp8utMCGPr+Yy+G4C1wBwZG2mTm3MgleLQaK8MSfhr0/E+bI0SH3HI4n8B6QeuJUTbHuwlIY1KH5EOh+k2lJCezSoZga0wptSIYA+hbrzNLUBfBcClok/PJTlu7CUoMSFX/cjfBfxlG5fhWjY2mgh/WwJuTYAoMEDs0urGlBz0EY894ZwZRkuyaubGjDqygfk02C1/SABSUry/YxYpK6lJ7Jzb1KGQ2a8Axxpan+U0r4YUT8CBqmoVcPLsE0FVArcaPFYlEIEsYUGPUh+NcweP9zh9/nMFSJMR/HExfisPgaKLkiGZZ3nZV/0g1y+aZNpeqI/HHrFGGwcjuK1PGTNzbR0DXJgbHJ3IuTQX/hPxg8SHvmo3/oI9/Kndj+5qeX+u1DJqtSM7THzjUeBB4NxLITA2rpGkPMjVOkKBi029Y9xHjG9ddEcKAsnfo7XZjEU0Z3P+VBZ/aOdXzw/SNXQ5/lNK+GFJonlTqzPG85Ey1iSk8vFHCC8cdn99OYuiISg22gxjWY+QMmkutLvjb31y7J6NuVO3rdCabRBowJrRjp6QeeFlHiIJCTyMRiJNfZYYnIktF+dNuBGLj4pAYcPS8gT3jNV6GFJsYcSY3pX3dUq3GhH/Fi54Wo/9Ts6buBuQ4ZavhE6p2MwDDhbMlfAytY3mQmulbuNhlFr8jNexIe+uH5G6KQeatiE8yyKDBBd7IGmIJuLSmYsBSCzZz3CZrrduTqbDRl0c4yzZHso3IxOZJ5CkGJDM1KGRopNT9V+AGycJhOasb/W2WWqFqxZhd7qyTflCXC3H2nNhCmvCIR5La7GBAyooNxUYWpJ+FNHlB7jcdc4YIaAzXdxBbjOJQZU4dfNxQzfxQoe9h/LvJmOsX0wpwxuG8YAApdl0rbYASGqvUdoF7vkrrmiGn0KpGB+YYORCgyC2RpJFN4H66xfSbjs+55ffYWDNrG0AMmsIYvbjMplsj862OHpBCzYqslh8X1aU8Rv9Mf/NVqMcbPysvlXOVHuP65LtPaloNRhGTCxp+UqNRJMCHxIe917nuACtoKEUP9/u9If0CCXGpUTnwjII8pFQVGBCU7nJN5ibIy63fsPtCCXCMgTzV34PknEiJNopnIhtyhte7my1Dks/OS36eXRQUKVolSujLa1/NesXMRrdcAKmcJnxUnVIaTyvTK3eBmw6AXHb7Wit3Koi/+4shiaWjv8ibbpXPn8SSAj74ol8ZGnyv8GH5AYJ1P7UFmUNWn5qhNhD+WYN+9I+ps75K0i8vn7si7W0NyhXHF0WBepCWxkH+DibLFCA2iURAFxGiFlp0opX/fbn8SSAj74ooooS8x5pSgeFlf+imE27pzHuTFObTz3Zvql/+GQau//zWhkYZuONoDGwyUtCyXYP8OvdlEfvxC8LOP9J3VmsststKbVxxtoQtVjyInhf+6/JkflHBZYsfsW7H3VGCAzmnEEpYsfsSDxDKHBGfrexO6SepO/PysGTpEHmlz3LlFQJEqZMbOSLVvMEVvCd4yPzl+gnsQVtnITkrMyDAN5objHuZaCDp5UrkwqmnkBmmzRJCuNDDe9jfZoyJ3TgyLdMUqt67J1gvqHQmI8NSh+dXC9qsbsDmO3WHz5mTl1jf0emFA6dOHZB0IjOaa5EQxbCMjatixj6tcqTcqZEamKQbgdJqdqZHvFCeF0FazS5dkPuMWb1BeECVN8u6RT/F6gG5JZnlVSXCLuiMEdx0t55J6/vvygbDeJB0sodPGvUncmj+Xp4dganqjSd9uUY1wsZOjqIYL6nUx8G/fovb7hJycTDEBh23rhsCqm7zMLqzMfgVAFG23WwA82pqFqEBURtd32qGy6fHpIMp9wLDwxSpg7XOLIR0lE1EAzAu5S7/I1NSibpSyVUD1EKL2h3muTXaAKUMac/VBZZWz8YOuHiAeTFKXwSYgKVmLtfr5r/iGomWuObEA9hcmxQdEe1x4ZTKL5s3sgfQHRpOx1OT6qLGvpkD4cDZ/DIbg92h7fe5O0GM4QPnQEzSEtJwplz7OVIRVQiB6VCkxUkxPVuPg8ntocHOXevzuyMmZPEhRDJ1Kex1e1p9Efieo44R89Mn6jItrM53m0V7WZwoC7bwiQIlscmK0o6K1KD94OwRzEihHlgOaED1BShjVLNqhzO3FK31J3ilxb4LDBE8EkBTJQBvB6s/dq9B7PcKXcA1F7QBTOz5R6yiatkSMd+SW+vmr/HN8r+S8O+W1yHlH8C/SYGeFVZuBCgbTpy1X0tOUOtlp+mJElVKH4nVnhf6PpCDtAz4hnNzFpQlsFuzzVa0xHO0AeALKkg66TJP76QWtMHlS6C7wgmq4j1NXNbFqrF47TJCM05wRAx2DXEN/+eYV4+WjA2oFzzhJQmYIAG+NKr3Sozv1cbOBRWjYXpZMdLCcgM10alpSFE4S44kmi/ahaWrqOFNPWkWMIOzU3yVH8+ynANbuuCghV4fMib5Q87m9XeG1hMXUZUaH7SV+GCVrT/3dSJSDgV3Srh34JV8GsY4JqM8vvY/16AsVztuToq536zX9MPheuMQC+twOb9FcuSSYUvS1Z3W5rWC1LcierSTvVfVOCaPPC7HqGcrJgvS388g8VoPq5eRNMQIZyijPQvXx/tXluL4tV7AvTszULGURhKXYT5NjhCCs8VmE+R/LzRyvCTZOtM4ryC+CzwKLY3qSDNmOWbsYiUVTlRdRtlN5sxvR3FXFXhxiOfMQq6p5iBLveWUgwS8UJrBiK4fagi/BrFLeaWUPPDlJGFU/Bli3LoCVAqo26Bngj55JZH65tjU95UklJqjJEicS+rLzoxxthBmtlp7Zoy1W8TcxZybyNHW0razUtJuGGHf7YNsk7Itj9i/gmjH2Rj7xi/0Gj7PO/CZ/WAdThL5Yv5Lb0o7deTf1/87yr9ee+3yC4inTz6rxlQtySo15vOoG91QrVqWQw4u3lKHbqdsNwcujIwyyJoEX0ShbtrEAE/gelWPkZU4e+7m1Q8qpPVQOOwTpGaYMnNOXiPa9qJSebG+Z0KSobgHF9QoZAwtL6fbqimW4X8kQVIbEmOdy00iOYbSr9Yq7II/4waRJgzw7kr6l5OxL5o1h2OvfwzOONt91c/P5jriPHVAtKF6giV1kTac3s0i+LotyWtQFvc39X9YDpu6xmy/BQBRu/7cu49ze5H/AdM2yjXZrfXiPZT6HHU/K81+0pTHhx+R9ATq9sFzPiA9jsmnDK3Q33u20yraz8slltmVbIdaUa/dr8JH2M2VHBLRK28tP5eiBJsuF1YYnUiC/2RqqRYRSjD2UA2fSxu5dR4G1Vm1ULS0wQnus0wzJbaLGCuTM5RuQDrX72MRUp/fRqodUIUdquvtqG24Kwu0qD619YsvV1v5cYWHJV1gbe5vfb5BcRTp6ASoHxfd1P6v6vc4G9NCe5v+7aWBvbluAyoE3689yf3oBKXG/rz32+QXEU6egEqIrfjjjE3SGvMZTaj/XITACwEecwl9ggCmAMYv6v6vs7Qn9YGWA6/65K+fD/6W/q9Nxlg/Ffvk9zUzAi7FRuDbpiMXHzn/BMAvryKNGkUABetPVEGxo3LrdUyU+veRxgm+uGviThA9Xx5ORZO0fCu25WcA883YNB0aMSzit7WT4Ay9Vc0VTdL4YYJboP5SnvFTpJkkoyAgTpGZJl/S0VMr4Noxh+zZJm6mQ4XQm+RDfYsUNq0/igH9d50TvLL1LQ8A0pV6BEtgTyEmsi9EPD3N9nXYKcAK+baPy9zt/V/U/32ddgptZ4dgAUzD9gAeqPr+4WNwqLgTe8IaRhtqeknB0eYFOMl6HabQlgSgaAI+tyzWHmBCaxPyb5YmnSVIKqu5xNjzEHug507iSjAPlFmM300tg0UoCiuciA7Tce896jhtwSMSvO8L6KG/ufRYUJ017sSLR1ZNZkyVmbrevyZAFh0WSioKOtBfdFXWEEA1oC3b7Edh/V/V/V9naE/q9iACP+bcH9X9Xub7Ouw/rAQtb6X2eZ+Pdu6jp9r9YPhrl0/kj75gS6XV7RNhtg0Tv2zunbvsqzk1QC/5qP7PCyvuufkIJTuFH0TUFificTgpOj5WsaJolVmIDDkjgLz3n3n3nKXr+RcrinCd0LdOnYNZnWbwjDX+U9cdwLM5eXn0OE+Q/Lvo96rFWzFhM10jaSbeGfFV6m1ghdmdrSOGiISclRQBHCc3VjaLKJYh5JZoEvW8vzyoaM+5LEj5B0K1CVumGb7yOYCk7wnmQK8U4fNmg63qNI9RiwVvhqKL3RABU/0/309lK3Jlaip99OjaRrqtEqlysg6JWJRtP7CV0ucBVvsRj+u/lNLuGKGWFhUNJnYt7a0v0g6pKKV9GKKM2DFduTTm5cLZMq2MOldElpBoBxeU1X4ERNscwron5xunGxPpO3KQga9+0uuYwlB4HcXot1oLu32oHfYCyrQwRh+ELq9Judf4m15JPm/59WJtu+pmA4Dt6yxA2Nrkya10+fcn2id+30zq6JgJWZH054PRQLJc1UtE0STgWzR8UzIsivRQRzRRBCK8j+V9PfWbuLLiiwZelptVS9HqORugumNdRMuUE5WoYA6oPqYHNnFNLgfbdi84armjQP7g2DQx77XYEOl4cNilulBP0XPhMXK5+YhDoH2WBMb9NgsuC+utDd+r5mkKXmyTZ2bM185xLpOe72CyU696LwjbGevyzSQOWiKT57WEjHjVpl5v1qLFAd31uapZcobWsn1oQiVxjLuC70UrdNDtbjtHIqdxHrP/lxmLqp6SNVGibmUdQ0XhDQIGVv+KAHcADffBnGeFvsf+UeFsHHDr0hBwPD8NU5mqCqjC/KGPklz8kIlekiCx8NKE30aa6DUbgNQ+bqvDUOQ0euFlPzEowI75pBvbJR4eVqzuf1JVHdLzM9NDXiJg5dUXBOJGO/O/wxT0bl0QCB0VJJOyZSmy3kBNqcz/to+kDyFl66gcdIg9NOTayrX9TsndgEioiVQPYmb/AtdLcl2n7FzzVR57fmzMpk9v/O8cxJDKMhmo6IrMeW6OfGrtYRypX/XF4Jp6VSd8kvmeHW9Gl+rucS2H8CTqyVdxSOv20Qyq0D9909BMu0Se3w1ozVV35ETQMS1/cVGLDZ0nVh18h3vkRjEZEOHhem8hDgzHXISaGZIC2Ml3fUD1/IhxKXKgS3WdFad2QBmlIOIY2bXzraIeXulU0tii7teEbVJR8eb0d9DG5+qCs7/dEFOgYjtBkzroQE4SlZJCR68c50Fwuxy1V0KoHPb7GdNTTXBqWGlsuoKA7rBUSv3hlOnj5skzEwm1f2YQOT2VNyfphpONFHY59JttiazKX+mgHdwRRC8YnfFgiZU/K5q1e3qWLdBBfiuRiShjO/DOAM8xlNqOW2YyoQk32cIvK8/AvXWVvZEI1796P8NF/TERXJoxtjHjcVUxMcKfG+/bdMiH753sWMX3j+63fjU5idiXgDUvxqvPj/elxkoZBYII5+2mTUj+lFDlgdEXr7YSyqKluwGlMOG20j1OVmU2XwOTHm6ARGF47sgyZuny3NFrRN1ZXzsGsHMeH6TupCYzR5TL+Cwx2x60SIgz/2Z4VYIL/NS1HUbYmbCwC7caURFHltcRjAKLzJyMBEdH3e00HzwO8sKe+GGpnzSdbtt1NGVRMQRjqrV19yprYVoqq9wBGpVwx1FGCTvUuXWi3zqZayhdNTz+2QLv0/8fO/HJ5u5KYXkIYQ8Rr9+BgRlVnShesrszCFR5C7RzBli2pI+SipPaGObvnnhhylkXu2I7NhnAk332W1z3EFjEFMxH2f/dy2t33MdLjEujcdvY5gGip/A0lFeJr2r3M/z/EA/oRX2KwAB3NuChThjGcQOFtMADVtX2djopeZ/IP+26cpwAp/v+bO5x+zDB+84Umvrx8p91wgIZyrUHbgxNKaCy5Qu2A8rmb7aroI2l+CD1rNJ20Ymxx7wkvct7R4zV6RU6vbeWb/4c6344tFSqlHnLBBAK4vGSCJPCjr8Uves1F2h9Yk5eQVW1b4PrAcRZvRTzA8DjEW5ym1G4R1NzSw+/IPhZIuSqUD9iY9OsD/WwahT9SqyMUS6uy99dZTPKfZlWIidlgbmQx0VOXuBzRV1KqjyN/YEItlkZJOn0fz2SxeO38cz+dRB3Gh+yZXOBOrhloBczRMJADBulOn6nPE4rjSl4R+0QrUaDVVAr9iSOw6B2DS1xcdpiBomm993Ns9yhoAUdu4aG0lUT5EmDzEb4A/ziMrI+GpX7KeSZkKSJWurdJY8DJWV1SExTCAxewR0xqtalOEd/ebL/w+Cs5D8LkY9LfK2H71C+NzoGMTly4p2/Yv/9uPHGY4b+bm/P9Rmg5xIrguYj1Xz9lZaAtDbORdVQ7f7UCtt00V2M+CpqyRHxtR1HQU0DUUVcqWiT8jy7zOXiyqklLFAV20G11gMaV1NaZwxGg7jaZ0sWfBqyhPCfCIaTsWjwqGc7v5R58i+8hkVrMasQOl93MwsO65oxhJ7+G1hgDLqQE3R0v13hgLLzsEXDiNu9XQF/A3dmUxJgAT69a+jKQzsnMAM+wfmLgqk7PSwIV0Ma241UeqybkhUazkneEttb+admUY78e/k1zsOdUw6kLVNImk54I6dVzGbJMukQGdC6f5aXguB4g/U+pR0h0y7LyEJphu2dTupShE0EoWWXMqpExUdRek7lIhcOj+0Kjybi0MyFjwm2qA5qwfCI1KSTQO2Iwr8t5Yt+zIIQE/1B4UvuqkOa2ta5xdxQTY3jupWdfdHeX1CgzpZRRQJxV/gtZZDHlWFA8wnqZV/YFiyk8HiWt+/4Jyb47KwiZ7lYA2BvUb++yXQy82xVbcp3X6oZWyf2/ePxg8FMIZuScPxS/OMal9C1NcBxP+BIr7WRxDgHJwwWFJK5VLfCQxm5wiJiZjLdI/jfC/Ye8EnnzQlzzGRKHWMcA3krjavlDWJYME6PKfdkquHjvu4uIum5ljdetPHhGUbZ/i/zFzxrWFeOM1uUFC4v4UFEDCiCXYV6vAhA4xYV+QLwCTdDSIM/X1RzWJRZXBT+VdvV6xh4ELCUG62BLXyGPoW2VycWNKg2OnJCxto1VZA6E3JFVP3LMOaXZqt5Ojz+p+EhKRkusMfU8v1/BqPV0g0LEENQOmnlBsKRIOHgVgRuFOYrbtlpmPtllcDwAAAQ/9qGsTUMA9nfrC58OjLA9vO2IO2RFNcKA3F/KgxdXBPUmd1IpntMPUogGKuOV6cA0e/YwMot442eoaNFQFjg9cFoZsZ4SwKka8a2nbnhHVAKq/8kFt2I4aLmE4e4FOEvUa9Z4M0I9EIFOCUlmZPBwUmtiD2tIcM8GkMEeb01nTLL+KonVRB+PycgJLcWkXMBXQiagzuJiwMC6LJ766tzZCWO/C8V8+sucgf2MTI7/wsUMi2cGzH99y4VzJMrwQWxcrwYahqxbD2D4tTdhXeA4JpJLXGYceoFpfLhuthAu4VOs4QOQr7MQKs4QUGKTCDwAHYQfcRbX7yxPUmsNmi5fnQqc2juvFSaWoMAR15DEIG/HZrPX06MhemQShlIXMojWiskTqzxKK8pa7eWjUZhTq4n27dNErA8JnCGeP5WfuNRoUHiQbanbFIwzr4+1qfmJq5BR0v0zH6oSpp/WYDSYGeoHhJGb3A+kEmln09ENAzwo3XyDChJdwQ9r1NFekn61WPcfwdbvYXNHIq3GYL9gV9+gSqW5B7E99gFJgAKQIf2/0Lk15XmIZ1SZGcDyxDEwg1T3/+eLchrz1jBxtCo4/ns9Puxa7GB/tgPhU8niP5dZv1UXDX/N4bBG4MgzWhciOF7MLATJe8doA14BzRLXtJwdabIyK5dBwdlg0iTkXNelCo98ubDojuc27NZtECwveXdDyNdbQbOVw63YWOE/Lmiky7QpFEa8tWJDvA1fR3ClelqqYkCA3mopzdyHkUVmMRIZGVN5HsgOrC4JYY0JJKe3RetIw0TVkfI2GZw3GDPY+0SIrdT88sZugsWQrAz05meOjzeot3MN4eKs5E15fi+8cA6dmjA+/iUrGzmZ5AwSJrcUtm2qfDxm9/8quRpFUDvPpzB1Dy4HiZeGC0yKdwBNZvawBCgy2WMeWXdMTKlRJG1hlrgiWgA1p5OomGsXXQ6qgFCyQlKVxWioSR5N8kWzPeYz/qNsRLlGtr11lb0ytGPFn7porJDyMBqOVyXy5E0Me3F2tu8C8gXBmg+/NSsC91/9WctHAQu+QmWrThdCAbe1DcHKXx23vmZM/LMNIO2bVyx1hIkBoBQgMl7Q8rt0c6qiGQ6emDMRuBIQEEi+QaYlVi05rdbxtyVBZZPOvPdHGTnpTwVDgfnOx7jwPKKqKI7eX2Mo8x8iNoF9CY3Y52CnoZWz4+o4xZV6Rg1cCvMDURAWuwaEovGSIs2MnEtH4lWl4slGYoNOWf0lD/oh8BEnSxNw45kxhDiJdhm9KZqwUAUXgAFkSqch7/AUCoz0s2hWWQc6mH8SASv7mBlGS6/aFltt/84DKJ3Us52ReNaqO4INIaf+v1HUbYADxmSF+2l3/38AbEwL/8T8U0xZ2dqZ+197zS111s7T0pvylz3M/0zjvGQi1ZjV4YEm2+he7mGSrToNmSkrAWf68VKLkUD+6EnSA+rWLQvYPjxCzSir2FclrP1IoUL+XEyLzRWVZFuloadP+HHl1VJP392dyDxVNaUsXMIVnuaS113Jc9UwjUPwjW6zIvTlj1aAwOLZmYg2fa1DFKZKv3uKR7QnFePvq6pd/ZutkPGQHAzxnBC5mMYGfFwOXgP85rKfZz8v4jxS3SNQkk+m8pwn9vLqY5yRF7lp5zHHCybMyLoysIoOmQmruoEFulhIlf2vTEGkA9ic9G/v7FQS/9CsIjmoiLb1I4r46AlrkkYn9MEoYrP/7zmGpnntEDqUqJ5T9DNXqIWH5f5QHN/hBVuLfi5CaO/Xqq1OW0G/b7sSl256eNrfMv+aYzbX9WpKZIbn6GYJTVk3m8BMBY5dj+tuQJSWpeFq9y+2EOFF+CV+t7X0ExR9wpp3mTtjmn+aVCBgiiw8dDEszvgd9c0bldFQe8z74f+rjNJoR1/vYcYUIuTrLEt7ssn7xwHR/SImoFCcb8n0EWPaIk7ggjk8T54EnG8s9Z4ccYjuZ6IvM/sAMMMf9kS7RTSPRlnajt8apvpHhoIx349/JrnYc6ph1IWpitBPzTHQaXbfSslLfFiZWxG9vfDVLaUn2xoOa0MCbmPdCIvWjNoqqAsiGJpoZdfs1B3jv8HM2x9HnM0R7Xo+MGStJTVhRysQvofzTc8sJ1u6QfYPvvmLvABmjLoTZ4ZdGhSDRycdYV9TYNpjte7v2b4/R6EWdHPm99dqlgZPEOrIZtN09PqpdUP2zZQfUddAlWmLJzddWAMvmBRt7az59n11PT2cMrB98pj+T2A4s5ceQgjGIdLn1U5ST/JO2T6/XGbz5cHwNP5M24wTPConQ/kL4tW98fIV7nxKl9Pb/1yzJ/99XSQN5hwS+bSI6x8703qxLKZj7b1guZUB77TlhrjzNJSBvoASyePVlTII5fNNt7bZdnATraq3CcTLSsbb8r0qhwPZXhCqebaSMlzzDd8qcS2aHIwqCK0gj7HTU11wyyP08h1/imZtj4//RjJXW3yyJvG/En+PLE1BYoiQbt6lOvqrCVQnlMU1tIYbagxZvWmMKkBRN9QJImsQd9dPI3i80OLNjpdvL6l/mtLMgv4c2REhbeUWpzf0L543pCVY173VtE6rCxd+z8/dWT0yCRet3yN+Dr8+FM+q3EA2LTe+uCnC5SyOyE1ZTPUEw1sEp5cIXqrRmXTx+BPW8foRAFy/uhAV59EKQhMLHDwKOowtfOgxwzWrsbwi7MHFruGt6zpfEPFMV55gcgDaClmXqM1vvfDlSJp5hfnpFjdV234SAJ9z7sPYwUef+hTVufn4S2z/v6/EKw8QpZJDofYTuuVyLOilH2tGksPjihGFtl4A/ynvpgMRSC+QyCduP7T2VXFcmOF3wtXNH7jxKBJ4eETqK7RUoHnR8QntIDQ46+iqm+f12EcPKk9r2xCQBlP8jVvUJea0YtT9Em5plbUtHvFdhSoBnnFXOa+Yghxg0uHL5rGMQq7SQiZZGBdGsnlDRp3PYz1JVaqgb6FM0ZuBIV6SdRFwPrEFGYZlVMQPfxVXbPalgvAaakmF0UBS5p/K456Z6PdM4NlWxH/EfyZf+6y59dFxVR/su4mArs4fFKiZav2GWz/27Y0SxX1hZqgCLxy0j/UxU8Q/3jv6FYRHNPgSRhJiIUAM31IpDrAJbYpLyD3RpFzWselEpp6llSGOKJ3ZWV3ejV18OUQ9yyAub5ZFCELeONnquft2mrr6s2BAbLvugp/EzFLlYJX7hdGeDrJCfG9SGyPqSWIA6LGw7dfS4iU2BMm/Wc21db/NCKDszi8tP7UqGsmYsjKDf9fYc6df+O4kiA5fx0xVPWY4KqKLOydQ6ytqDQVbBsN0YBedRDyNrN/twQwLlFLxfibRQYvOPLXYcPhWMvxt4UNRQFZHAx8Z/8glINaujp701a6JtKWbwkHf0lFbZAwMWzoLrcRrNRfI/YxspveX+WXv0fcO3AlhE72UQ9QakSHutG3R9aPOo5d/otq98IYnJrURcrq7My1o9y8h4E88zk94ZAPcRyYZXa1Zj0imw1kBmVo1eVxHh4KmgHs/rGh++7jSunMpzt0OrfcaIA/bXdfh5DW6R+mSqr0/HD6fQpok9pR9zMHedi14OdBgk2fZL/w6jbPk/KzooCFTlia4kIklfRDPMABdI5zH2BMNQT76ZO0VwmS+A2sU1dwX+LHoKgugm5W5BnRMaNOuvvkET5+0JIdVNLYV/6M/w7eXHEWGbHdp9yuQO/RAcZY5FPsSpScxqT0t31kgvj4/zPIFCd3VsfgO0b+QFTr03IrLh8b3U96TrKEwaB+K0OFB34MJJMapTKEvphT9DA7amqNL63PkMxKiKjTC6cpsSxDDj5PNPFCbvei8w3Po7Lpn4e56vUS+/yESWq6Hor+XJI0Ft4O1cm7DMe0xR7AHB0GcaEpMJJNLEj22G1euNa6FRnGgfWMXmA3CyN8HE5lXMSIMUqxxgf7YD4VPJ4j+HOPOG8y4MW7sZHGmDwN6mKKIg2gdSThnaJc+g9eKDjQym4bJzhp8PLeE5mVJoooUVjQRoO+mKtaIoNZj8gbkfl98neHRMlHNqB/Wf5Qp0+cwJzop3RMvKKXemBF0CtOLp2IVaqBY19k59ezDMwAjGi1e7zsMmrYsPM6IzNT4GwImDgpWci3yMf7/AtR1G2IlyjW166yt6ZWy794AfizAJSzYaWueo0OqNKik4bH4ILugxeaD3E1MfzGvAQFZUNH49iUwQUdp3fn+b/2Wfvpfg8icYptSNB0KdgWR2xX+TZ3ZT0b9HYDTkawDcputNMMTdtlyRA5+Brp0UZgAFVk+Kj0N/oZqwah9GllzixNmbTA3U9zP8/xAAEaSP02krz+M9OoCpRvp8YHpzyBTVqU4EB2oJkWGVUI3V3Th+57TMApwApmGo64ZwjuOoU8CMKoIeRN85t5g9IJtOxWLqZRIzwAsiVdhGPeXNTfpJPxAJ3IlfM/XvYzHRfcNBM/4tfrCNduas2wHzQNyMUKxYZ3NK5jNlH5RetuUpDJifSLffWLFk2zd8QZ5wdza8URfaDF69ORgl06uqLbnZsMQG0X79XD/dmdXrMCbga2Fq6WwxYk52XP0zgNpGuPmwIR7O7e8LPiBBFUce0K6TIw05/VCDd7S/vMoq5pCnN2W9xoKmSQCm4O3jSMPUvIEif0Joe7fwl3A9CAIAoYe34zSrYb+X/w6ssSAXzXpoXFua4z2MYCdachG3loDFxI2vR7jSNvDQ8rytO8jzkUNnTI4D+zMe4ccmdNiklz6dixoPzgr1SQMtOIZDoOdSP2K8gI3G0i8wnHqV2kpskw+O88FXoVy3hsj38mp008SWeR8RFZdgifCW6rzCEomPcCGWTDBleSRemx98M/c8wceJqjK62joyZXadvxv7XRih0wQqnPaqWrq6Hf8gT7+9sTc3b/OK+FRQgGSP+uMKU+qY3KxDUzD77ktl6nw5HhNuYfw7RgD7fXrMyl+nnxsFqnyh993l0lo/L4GrR5kwzC0fn7gPtvGs67QpvccnBvt2nWh72gC0RbqoSwIQfTGQGQOzInCSPG1+LSwAOvYgq5yvHRm759w6ZVFosKXQ7gCQN8bzqg02+R0T5aZCa5ersYzENUfaR4C7K9jdgI6BHqbM0F8eDAjKvRBb5IHCEYgUN8xRhVPcfxc8UbshSIg3j0DBU2wQYYRWkeTDos7aSzUsGY8HfOeic/30TmupwQ9KcbKuuhE5x4NPVyhoVQO6Gyk/FvY6QYtEh2CHhPxA36XEn/k78a+unii7uBnPGAynP7gfuQJTz8z3GszWrfSdYLbWBm1FBbIJZcPmCEe0K6NKe0dxIxVnaQ2CZ5npb3JneonvHsmpzchyI4r1+29TOKZrQ2no9axtX5C0noZxYG+2GsJ+MayUnkg9LbneUWE+ksIaGce1eKXNvoOO25RUQOLR8WpdIjZXgdok2y2U0Y1MHe5P2gw/QyDSe0+pMqpOrF9tRMMQpx8c3IOdGQWzO+etSr77Xy4HPlQ9v/aVkHrDLbE+HC/2utF39m10kabIr5e+Pg1VWt1U9xG5LGGxXZ9/FCAUYUiVfrW7pkDzEvADm1Yugt+PGAC/7A99ZzYxcAHOe+2MboFcrjf5kyoHaZdClCL+iQvXhdTxL0DJXEUnm91xARJG5+lqhMcVu1toFR4D8g2RDq7b8yFOi+XWZtsiPkbH8a5H2msga7P/c9AwcB5e4I/8IkX2lVKjjHf8ZR3935C4Ek19V6kgvxUxjvUvFc2Fky+il1K2A+FTyeI/aSw1nyRVp2Nubc4bhaz9hFFX2CSFe2Bn0WGtBConkTGRaSX88b3f/BXbtBwfZV6QEnNFX+YMLADmTZw4NJoGSt618sL8vP9rGmFwVXkriz1/bUXS9mu0LKsaLs/YQT3RIif5k5TAW3CUlFdbcif8hYu6W6ChmJJst9G2+5h3Xw3B6vG3jcEJw3P1u4YjFYaDMFtQ6VSTJypVWH9Vv3BpYe4x+hD4fX9nlNqNsihYttexjKleusremVjGF75579ef1e5vul8hhntRBzRSZ9LUMAOpORiVLId0tydiGw6yMAPT4F+1ZaODPyRE4Znxv2kyLUL+NcAbzG+ERUbRZSj1oHWey8y38kYodX8xG+OSBV8JymB1nsstTzG9ye5vswGUAAAAA=;" vertex="1" parent="1">
                    <mxGeometry x="-230" y="-240" width="1471" height="1276" as="geometry"/>
                </mxCell>
            </root>
        </mxGraphModel>
    </diagram>
</mxfile>